<?xml version="1.0" encoding="UTF-8"?>
<svg width="1000px" height="1000px" viewBox="0 0 1000 1000" version="1.1" xmlns="http://www.w3.org/2000/svg" xmlns:xlink="http://www.w3.org/1999/xlink">
    <!-- Generator: Sketch 64 (93537) - https://sketch.com -->
    <title>athletics</title>
    <desc>Created with Sketch.</desc>
    <g id="athletics" stroke="none" stroke-width="1" fill="none" fill-rule="evenodd">
        <circle id="Oval-Copy" fill="#222222" cx="500" cy="500" r="500"></circle>
        <path d="M293.929652,390.238576 C276.550403,422.23082 266.470749,458.802125 265.755814,497.600237 C325.34339,482.014346 380.929899,480.442429 422.950005,512.9876 C422.991342,512.9876 423.028435,513.042716 423.06145,513.05374 C435.774637,494.01327 448.606704,476.476813 460.916198,462.966711 C462.047625,461.725492 463.241383,460.447897 464.436789,459.190694 C410.258274,407.887911 344.511614,349.555597 331.999866,338.489901 C317.056018,353.843643 304.239631,371.260939 293.929646,390.240229 L293.929652,390.238576 Z M343.954372,327.07036 C358.643119,340.037567 422.717194,396.856387 476.232791,447.529743 C487.281654,437.078043 499.906093,426.348557 513.398194,415.663715 C512.591215,414.576271 511.762762,413.443632 510.997059,412.340755 C480.552937,368.470401 483.967859,314.709983 496.793324,267.702962 C438.15679,268.485613 384.640371,290.761408 343.954372,327.07036 Z M266.063335,514.609121 C269.268154,574.586105 294.929401,628.635884 334.91533,668.306377 C341.458707,655.178781 356.118149,626.219586 374.754721,592.852191 C386.651845,571.551402 400.140232,548.653895 413.959669,527.011386 C413.55517,526.6862 413.157639,526.329047 412.746923,526.015986 C375.692558,497.315837 324.928133,498.632565 266.063335,514.610774 L266.063335,514.609121 Z M513.703241,268.082713 C500.666433,313.60876 497.366263,363.652136 524.6229,402.92965 C525.225558,403.797732 525.912836,404.670222 526.547279,405.530036 C544.315776,391.984108 562.827272,378.730848 580.191248,366.793764 C610.508233,345.950992 636.787411,329.351622 649.368098,321.533929 C612.114774,290.647318 565.127694,271.068913 513.703241,268.082713 L513.703241,268.082713 Z M397.907097,585.515663 C394.915275,590.71423 392.005179,595.831226 389.182592,600.884286 C365.762324,642.8162 349.676731,675.343072 347.455562,679.865914 C383.807796,711.050153 429.880568,731.180823 480.455106,735.353677 C477.062886,632.554651 456.629491,571.567937 426.276179,538.441951 C416.518078,553.818291 406.877618,569.916102 397.907097,585.515663 Z M435.395713,524.194944 C471.781788,561.125607 493.707385,627.520881 497.107448,736.179319 C498.037855,736.179319 498.941839,736.289551 499.874721,736.289551 C561.998004,736.289551 618.495514,712.047207 660.428932,672.588912 C646.074944,655.758605 556.398653,550.987519 504.678231,498.361393 C496.496126,490.036079 486.7405,480.507467 476.354146,470.539687 C475.254499,471.695476 474.170957,472.912443 473.138596,474.045634 C461.288944,487.05032 448.311573,504.702521 435.395713,524.196598 L435.395713,524.194944 Z M488.197609,459.054557 C498.499751,468.946276 508.264873,478.348011 516.473815,486.700332 C568.495971,539.633014 655.878455,641.819147 672.113065,660.864026 C710.667884,619.102972 734.244186,563.228293 734.244186,501.909779 C734.244186,499.254277 734.112072,496.671528 734.02543,494.03697 C624.934059,490.965891 559.799967,465.601269 524.079702,428.382899 C510.938046,438.794364 498.720194,449.17276 488.197609,459.054557 L488.197609,459.054557 Z M537.355494,418.025999 C569.188617,450.278943 628.500044,474.345467 732.992639,477.504732 C727.12911,420.887636 701.032792,370.277113 662.148984,332.934732 C653.398476,338.310222 624.501038,356.285294 589.490754,380.355125 C572.561022,391.993478 554.595221,404.871948 537.355494,418.025999 L537.355494,418.025999 Z" id="Shape" fill="#FFFFFF" fill-rule="nonzero"></path>
    </g>
</svg>