<?xml version="1.0" encoding="UTF-8"?>
<svg width="1000px" height="1000px" viewBox="0 0 1000 1000" version="1.1" xmlns="http://www.w3.org/2000/svg" xmlns:xlink="http://www.w3.org/1999/xlink">
    <!-- Generator: Sketch 64 (93537) - https://sketch.com -->
    <title>commuter</title>
    <desc>Created with Sketch.</desc>
    <g id="commuter" stroke="none" stroke-width="1" fill="none" fill-rule="evenodd">
        <circle id="Oval-Copy-2" fill="#222222" cx="500" cy="500" r="500"></circle>
        <path d="M263,721.385089 L263,737 L736.150538,736.874516 L736.150538,721.385089 L632.042679,648.18088 C663.475757,632.738509 685.233499,600.316589 685.233499,563.071379 L685.233499,357.748238 C685.233499,305.617492 642.619686,263 590.503032,263 L408.69455,263 C356.577895,263 313.971923,305.617492 313.971923,357.748238 L313.971923,563.071379 C313.971923,600.144048 335.549331,632.354214 366.723668,647.929912 L263,721.385089 Z M582.57792,658 L417.469055,658 L388.72043,678.387097 L611.27957,678.387097 L582.57792,658 Z M404.836775,535.677419 C419.885371,535.677419 432.043011,547.646483 432.043011,562.435484 C432.043011,577.216651 419.885371,589.193548 404.836775,589.193548 C389.83506,589.193548 377.677419,577.216651 377.677419,562.435484 C377.677419,547.646483 389.83506,535.677419 404.836775,535.677419 Z M594.270786,535.677419 C609.313731,535.677419 621.473118,547.646483 621.473118,562.435484 C621.473118,577.216651 609.313731,589.193548 594.270786,589.193548 C579.266915,589.193548 567.107527,577.216651 567.107527,562.435484 C567.107527,547.646483 579.266915,535.677419 594.270786,535.677419 Z M448.863157,291.88172 L551.136843,291.88172 C572.431088,291.88172 572.431088,324.16129 551.136843,324.16129 L448.863157,324.16129 C427.568912,324.16129 427.568912,291.88172 448.863157,291.88172 Z M388.401865,354.741935 L610.748673,354.741935 C629.732367,354.741935 645.258065,370.273782 645.258065,389.25715 L645.258065,449.337156 C645.258065,468.328369 629.732367,483.860215 610.748673,483.860215 L388.401865,483.860215 C369.418171,483.860215 353.892473,468.328369 353.892473,449.337156 L353.892473,389.25715 C353.892473,370.273782 369.418171,354.741935 388.401865,354.741935 Z M636.63494,696.225806 L363.537668,696.225806 L336.053763,715.763441 L663.946237,715.67792 L636.63494,696.225806 Z" id="Shape" fill="#FFFFFF"></path>
    </g>
</svg>