<?xml version="1.0" encoding="UTF-8"?>
<svg width="1000px" height="1000px" viewBox="0 0 1000 1000" version="1.1" xmlns="http://www.w3.org/2000/svg" xmlns:xlink="http://www.w3.org/1999/xlink">
    <!-- Generator: Sketch 64 (93537) - https://sketch.com -->
    <title>equity</title>
    <desc>Created with Sketch.</desc>
    <g id="equity" stroke="none" stroke-width="1" fill="none" fill-rule="evenodd">
        <circle id="Oval-Copy-6" fill="#222222" cx="500" cy="500" r="500"></circle>
        <path d="M646.524357,330.112223 C645.370929,324.347191 638.450361,317.429152 632.683221,316.276145 C628.069509,315.123139 620.572227,320.888171 617.111943,325.500197 C613.651659,330.112223 613.651659,337.030262 612.498231,343.371798 C608.461233,365.27892 604.424235,387.762547 600.387237,409.66967 C598.080381,421.776238 579.625533,420.046728 580.202247,407.363657 C580.202247,407.363657 580.202247,407.363657 580.202247,406.787153 C583.085817,364.125914 585.392673,322.041178 587.699529,279.379938 C588.276243,267.273371 586.546101,256.319809 572.128251,256.319809 C557.710401,256.319809 555.980259,266.696867 554.826831,278.803435 C551.943261,319.735165 548.482977,360.090391 545.599407,401.022121 C545.022693,406.21065 540.408981,410.822676 535.218555,410.246173 C528.297987,409.66967 528.874701,406.21065 528.874701,397.563102 C529.451415,376.808985 528.874701,355.478365 528.874701,334.724249 C528.874701,307.052094 529.451415,278.803435 528.297987,251.13128 C528.297987,247.672261 527.144559,245.366248 524.260989,241.907228 C520.223991,237.871706 507.536283,236.718699 502.922571,239.601215 C500.039001,241.330725 498.885573,243.060235 497.155431,248.825267 C495.425289,253.437293 496.002003,259.202325 496.002003,264.390854 C496.002003,294.369023 496.002003,324.347191 496.002003,354.901862 C496.002003,370.46745 496.002003,386.60954 496.002003,402.751631 C496.002003,407.94016 494.271861,411.399179 489.658149,411.975683 L487.351293,412.552186 C482.160867,413.128689 476.970441,409.66967 475.817013,404.48114 C470.049873,364.702417 464.282733,324.923694 458.515593,285.144971 C456.785451,274.767913 448.134741,268.426377 440.637459,270.155887 C427.373037,271.308893 427.373037,280.532945 425.642895,288.027487 C423.912753,294.945526 426.796323,303.593074 427.949751,311.66412 C434.293605,362.972908 440.637459,413.705192 446.981313,465.01398 C448.134741,476.544045 449.288169,486.921103 436.600461,486.921103 C429.103179,486.921103 419.299041,480.003064 414.685329,473.085025 C404.881191,458.095941 397.960623,440.800844 389.886627,424.658754 C384.696201,414.281695 370.278351,403.328134 360.474213,411.399179 C351.823503,418.893721 351.246789,429.27078 355.860501,439.647838 C373.738635,482.309077 390.463341,526.123323 408.918189,568.784562 C415.262043,583.197143 424.489467,596.456718 434.870319,607.986782 C448.134741,622.975867 455.055309,639.117957 455.055309,658.719067 C455.055309,685.814719 455.632023,713.486874 454.478595,740.582526 C453.901881,751.536088 457.362165,757.30112 468.896445,758.454127 C478.123869,759.607133 487.351293,760.76014 496.578717,761.336643 C511.573281,762.489649 549.059691,762.489649 569.244681,758.454127 C575.011821,757.30112 580.202247,756.724617 585.969387,755.571611 C597.503667,752.689094 601.540665,748.077069 600.963951,736.547004 C600.963951,696.191777 600.387237,674.284654 601.540665,634.505931 C602.117379,622.399363 637.296933,582.044137 632.683221,520.934794 C630.376365,462.707967 634.413363,413.705192 643.640787,357.207875 C644.794215,347.983823 648.254499,338.759772 646.524357,330.112223 Z M575.95512,528.22005 C571.91024,536.274709 566.13184,542.603369 560.35344,549.507363 C549.95232,560.438685 538.395521,570.219343 526.260881,579.424667 C526.260881,579.424667 526.260881,579.424667 525.683041,580 C523.371681,578.274002 520.482481,575.972671 517.593281,574.246672 C506.614321,565.61668 495.635361,555.836023 486.389921,545.480033 C481.189361,539.726705 477.144481,533.973378 473.677442,527.069384 C470.210402,519.014725 470.210402,511.535399 473.099602,503.48074 C475.410962,497.15208 478.878001,491.974085 484.078561,488.522088 C491.590481,483.344093 500.258081,482.193427 508.925681,485.645424 C513.548401,487.371422 517.015441,490.823419 519.904641,494.850748 C521.638161,497.727412 523.371681,506.932737 525.105201,509.809401 C525.105201,510.384734 525.105201,510.384734 525.683041,510.384734 C527.416561,506.932737 530.883601,497.727412 533.194961,494.275416 C536.084161,489.672753 538.973361,486.79609 544.173921,484.494758 C548.2188,482.76876 551.68584,482.76876 555.73072,483.344093 C566.70968,485.070091 573.06592,491.398752 577.1108,501.179409 C578.84432,505.782071 580,510.384734 580,514.987396 C580,519.014725 578.26648,523.617387 575.95512,528.22005 Z" id="Shape" fill="#FFFFFF" fill-rule="nonzero"></path>
    </g>
</svg>