<?xml version="1.0" encoding="UTF-8"?>
<svg width="1000px" height="1000px" viewBox="0 0 1000 1000" version="1.1" xmlns="http://www.w3.org/2000/svg" xmlns:xlink="http://www.w3.org/1999/xlink">
    <!-- Generator: Sketch 64 (93537) - https://sketch.com -->
    <title>finance</title>
    <desc>Created with Sketch.</desc>
    <g id="finance" stroke="none" stroke-width="1" fill="none" fill-rule="evenodd">
        <circle id="Oval-Copy-3" fill="#222222" cx="500" cy="500" r="500"></circle>
        <path d="M618.4,583 C618.4,504.5 546.4,479 515.9,468 C454.4,446 454.4,424.5 454.4,415 C454.4,383.5 490.4,380.5 501.4,380 C518.4,379.5 535.4,387.5 546.9,395 C553.9,399.5 563.4,398.5 568.9,392 L593.9,365 C600.9,357.5 599.9,345 591.4,339 C577.4,329 555.4,316.5 528.4,311 L528.4,277.5 C528.4,269.5 521.9,263 513.9,263 L476.4,263 C468.4,263 461.9,269.5 461.9,277.5 L461.9,314.5 C413.9,328.5 382.9,366 382.9,415 C382.9,469 419.4,509.5 491.9,535 C542.9,553 546.9,567 546.9,583 C546.9,593 546.9,620 500.4,620 C476.9,620 450.9,604 434.9,591.5 C427.9,586 417.9,587 411.9,593 L385.9,619.5 C378.9,627 379.4,638.5 387.4,645 C402.9,657.5 429.9,676 461.9,685 L461.9,722.5 C461.9,730.5 468.4,737 476.4,737 L513.9,737 C521.9,737 528.4,730.5 528.4,722.5 L528.4,688 C583.9,679.5 618.4,640 618.4,583 Z" id="Path" fill="#FFFFFF" fill-rule="nonzero"></path>
    </g>
</svg>