<?xml version="1.0" encoding="UTF-8"?>
<svg width="1000px" height="1000px" viewBox="0 0 1000 1000" version="1.1" xmlns="http://www.w3.org/2000/svg" xmlns:xlink="http://www.w3.org/1999/xlink">
    <!-- Generator: Sketch 64 (93537) - https://sketch.com -->
    <title>formals</title>
    <desc>Created with Sketch.</desc>
    <g id="formals" stroke="none" stroke-width="1" fill="none" fill-rule="evenodd">
        <circle id="Oval-Copy-4" fill="#222222" cx="500" cy="500" r="500"></circle>
        <path d="M454.721254,455.905562 C454.721254,455.905562 420.03786,428.564655 368.065833,408.159411 C343.235774,398.402479 290.313838,384.48243 283.616669,387.392073 C279.298335,394.729477 263.477831,465.202473 263.007418,499.449425 C262.537005,533.695899 284.576139,610.536099 290.332483,613.464373 C296.088827,616.413188 377.045271,593.990635 399.131255,581.167375 C420.219523,568.94219 439.561432,551.260288 454.730337,532.726177 C454.721254,519.030167 454.721254,455.905562 454.721254,455.905562 Z M545.279225,455.906454 C545.279225,455.906454 579.944439,428.566343 631.92983,408.161335 C656.770812,398.404516 709.686084,384.475075 716.383621,387.394239 C720.700757,394.731558 736.523084,465.203258 736.992566,499.449334 C737.463483,533.696843 715.424098,610.535674 709.675566,613.464391 C703.909346,616.413172 622.948945,593.989446 600.861273,581.16729 C579.771849,568.941769 560.428881,551.261028 545.269663,532.727132 C545.279225,519.040358 545.279225,455.906454 545.279225,455.906454 Z M465.099518,454.179856 C465.099518,462.079196 465.099518,521.277644 465.099518,533.117144 C478.42458,538.140192 521.775352,538.140192 535.099518,533.117144 C535.099518,521.277169 535.099518,462.069209 535.099518,454.179856 C521.838924,450.834644 478.37041,450.834644 465.099518,454.179856 Z" id="Shape" fill="#FFFFFF" fill-rule="nonzero"></path>
    </g>
</svg>