<?xml version="1.0" encoding="UTF-8"?>
<svg width="1000px" height="1000px" viewBox="0 0 1000 1000" version="1.1" xmlns="http://www.w3.org/2000/svg" xmlns:xlink="http://www.w3.org/1999/xlink">
    <!-- Generator: Sketch 64 (93537) - https://sketch.com -->
    <title>lca</title>
    <desc>Created with Sketch.</desc>
    <g id="lca" stroke="none" stroke-width="1" fill="none" fill-rule="evenodd">
        <circle id="Oval-Copy-7" fill="#222222" cx="500" cy="500" r="500"></circle>
        <path d="M683.737322,594.841101 C712.468454,624.304086 733.832629,679.547181 726.465672,737 C687.420801,666.288838 648.375929,708.27359 607.12097,667.025413 C579.86323,639.772152 584.283404,608.099444 602.700796,588.948505 C628.485145,563.168393 659.426364,569.797565 683.737322,594.841101 Z M668.266713,387.863638 L566.602707,490.247508 C584.283404,508.661873 598.280622,524.866514 605.647579,537.388282 L552.605489,590.421654 C540.081662,583.792482 523.137662,570.53414 503.983574,552.856349 L341.173826,717.112486 C338.227043,720.058784 335.28026,720.795359 331.596782,720.795359 C299.918867,714.166187 277.817996,692.068949 271.187735,659.659667 C270.451039,656.713368 271.924431,653.030495 274.871214,650.084197 L436.944266,487.301209 C367.694871,414.380323 296.972084,330.410819 285.184953,316.415901 C254.98043,281.06032 292.55191,245.704739 327.913303,273.694574 C341.910521,284.006619 427.367222,355.454355 500.300095,423.955793 L602.700796,320.835349 C619.644797,348.825184 641.008972,370.922422 668.266713,387.863638 Z M694.787758,361.346952 C667.530017,343.669162 645.429146,322.308498 629.221841,294.318663 L716.151933,265.592254 C727.939064,260.436231 730.885846,262.645955 725.728977,275.167723 L694.787758,361.346952 Z" id="Shape" fill="#FFFFFF" fill-rule="nonzero" transform="translate(499.583490, 500.000000) scale(-1, 1) rotate(-180.000000) translate(-499.583490, -500.000000) "></path>
    </g>
</svg>