<?xml version="1.0" encoding="UTF-8"?>
<svg width="1000px" height="1000px" viewBox="0 0 1000 1000" version="1.1" xmlns="http://www.w3.org/2000/svg" xmlns:xlink="http://www.w3.org/1999/xlink">
    <!-- Generator: Sketch 64 (93537) - https://sketch.com -->
    <title>mental</title>
    <desc>Created with Sketch.</desc>
    <g id="mental" stroke="none" stroke-width="1" fill="none" fill-rule="evenodd">
        <circle id="Oval-Copy-8" fill="#222222" cx="500" cy="500" r="500"></circle>
        <g id="Group" transform="translate(263.000000, 344.000000)" fill="#FFFFFF" fill-rule="nonzero">
            <path d="M0.484837545,107.76303 C14.4231848,108.418177 56.5925911,111.872593 100.179457,131.050553 C107.680177,210.263868 154.456326,270.299223 220.368171,312.05 C101.006308,300.495577 21.6286015,227.595503 0.484837545,107.76303 Z M473.168171,107.76303 C452.077803,227.560577 372.67877,300.498944 253.284838,312.05 C318.741778,270.609099 365.944031,210.591242 373.446767,131.103307 C417.104419,111.930936 459.226079,108.417986 473.168171,107.76303 Z M237.538379,0 C264.542027,33.7786343 292.08099,94.7347967 296.06611,138.028539 C301.300297,195.476005 275.24832,266.720379 237.538379,310.727754 C200.780109,264.698418 174.311776,201.006662 178.713251,141.418297 C182.519933,90.2151202 205.7169,39.725577 237.538379,0 Z M118.801698,23.1393008 C129.416154,29.0728154 158.235293,46.6360186 185.690563,75.2355589 C155.32966,155.872022 172.585564,232.17702 221.684838,302.133157 C120.995747,237.042502 85.0607716,136.469429 118.801698,23.1393008 Z M354.829053,23.1393008 C389.511253,139.945361 349.849045,234.386828 251.968171,302.133157 C300.226821,232.54783 318.842566,157.386185 287.895372,75.2838042 C315.344703,46.6310225 344.157607,29.1308763 354.829053,23.1393008 Z" id="Combined-Shape"></path>
        </g>
    </g>
</svg>