<?xml version="1.0" encoding="UTF-8"?>
<svg width="1000px" height="1000px" viewBox="0 0 1000 1000" version="1.1" xmlns="http://www.w3.org/2000/svg" xmlns:xlink="http://www.w3.org/1999/xlink">
    <!-- Generator: Sketch 64 (93537) - https://sketch.com -->
    <title>reps</title>
    <desc>Created with Sketch.</desc>
    <g id="reps" stroke="none" stroke-width="1" fill="none" fill-rule="evenodd">
        <circle id="Oval-Copy-11" fill="#222222" cx="500" cy="500" r="500"></circle>
        <path d="M621.986192,523.572581 C673.306949,523.572581 713.053068,563.502759 713.842858,614.614643 L713.854839,616.166881 L713.854839,707 C713.854839,723.402857 700.690667,736.731057 684.350944,736.995981 L683.854839,737 L317,737 C300.597143,737 287.268943,723.835828 287.004019,707.496105 L287,707 L287,616.166881 C287,564.832037 326.088809,524.38851 377.188468,523.584773 L378.740591,523.572581 L621.986192,523.572581 Z M499.023186,553.23171 L498.949141,553.369488 L477.661858,596.918921 C477.394704,597.465464 476.894983,597.857902 476.307412,597.991095 L476.145096,598.020913 L428.148992,604.808808 C427.70832,604.87113 427.301024,605.078658 426.991584,605.398537 C426.264016,606.150647 426.244572,607.326616 426.919566,608.101315 L427.038492,608.226575 L461.878332,641.929499 C462.315569,642.352469 462.534379,642.949001 462.479482,643.548973 L462.457683,643.71256 L454.081743,691.457142 C454.00484,691.895505 454.076349,692.346996 454.284949,692.740139 C454.778014,693.669403 455.899611,694.050424 456.848181,693.637381 L456.989069,693.569438 L499.808558,670.849558 C500.341498,670.566782 500.970403,670.541075 501.520791,670.772437 L501.683378,670.849558 L544.502866,693.569438 C544.89601,693.778039 545.3475,693.849548 545.785863,693.772645 C546.824366,693.590458 547.534197,692.637593 547.430581,691.605107 L547.410193,691.457142 L539.034252,643.71256 C538.929135,643.113368 539.102748,642.50215 539.499814,642.04903 L539.613604,641.929499 L574.453443,608.226575 C574.773323,607.917134 574.98085,607.509839 575.043172,607.069167 C575.190817,606.025193 574.503939,605.055652 573.489967,604.835141 L573.342944,604.808808 L525.346839,598.020913 C524.744491,597.935726 524.216838,597.581733 523.908595,597.064079 L523.830078,596.918921 L502.542794,553.369488 C502.347347,552.969643 502.024115,552.646411 501.62427,552.450964 C500.679165,551.98899 499.547815,552.339995 499.023186,553.23171 Z M500.12072,263 C566.429451,263 620.201613,316.773223 620.201613,383.102222 C620.201613,449.412261 566.429451,503.185484 500.12072,503.185484 C433.793031,503.185484 380.016129,449.412261 380.016129,383.102222 C380.016129,316.773223 433.793031,263 500.12072,263 Z" id="Combined-Shape" fill="#FFFFFF" fill-rule="nonzero"></path>
    </g>
</svg>