<?xml version="1.0" encoding="UTF-8"?>
<svg width="1000px" height="1000px" viewBox="0 0 1000 1000" version="1.1" xmlns="http://www.w3.org/2000/svg" xmlns:xlink="http://www.w3.org/1999/xlink">
    <!-- Generator: Sketch 64 (93537) - https://sketch.com -->
    <title>scc</title>
    <desc>Created with Sketch.</desc>
    <g id="scc" stroke="none" stroke-width="1" fill="none" fill-rule="evenodd">
        <circle id="Oval-Copy-10" fill="#222222" cx="500" cy="500" r="500"></circle>
        <path d="M591.520089,358.529018 C602.523661,358.529018 611.516964,367.522321 611.516964,378.631696 L611.516964,378.631696 L611.516964,615.420089 C611.516964,626.423661 602.629464,635.416964 591.520089,635.416964 L591.520089,635.416964 L575.226339,635.416964 C565.598214,635.416964 557.874554,627.5875 557.874554,618.065179 L557.874554,618.065179 L557.874554,613.621429 L482.013393,594.576786 L482.013393,602.617857 C482.013393,614.25625 476.829018,625.048214 467.835714,632.348661 C460.958482,637.95625 452.494196,640.91875 443.818304,640.91875 C441.067411,640.91875 438.422321,640.601339 435.777232,640.072321 L435.777232,640.072321 L366.475893,625.365625 C348.9125,621.6625 336.216071,606.003571 336.216071,588.016964 L336.216071,588.016964 L336.216071,558.074554 L302.570536,549.610268 L284.901339,549.610268 C273.051339,549.610268 263.423214,539.982143 263.423214,528.132143 L263.423214,528.132143 L263.423214,465.496429 C263.423214,453.646429 273.051339,444.018304 284.901339,444.018304 L284.901339,444.018304 L302.570536,444.018304 L557.874554,380.007143 L557.874554,375.880804 C557.874554,366.252679 565.704018,358.529018 575.226339,358.529018 L575.226339,358.529018 Z M637.227232,555.852679 L686.849107,567.808482 C690.658036,568.760714 693.620536,571.617411 694.572768,575.320536 C695.525,579.023661 694.466964,583.044196 691.610268,585.689286 L676.057143,600.395982 L710.443304,610.976339 C716.050893,612.669196 719.119196,618.594196 717.426339,624.201786 C715.945089,628.962946 711.81875,631.925446 707.269196,631.925446 C706.211161,631.925446 705.153125,631.819643 704.200893,631.502232 L652.462946,615.525893 C648.865625,614.467857 646.114732,611.505357 645.268304,607.802232 C644.421875,604.099107 645.585714,600.290179 648.336607,597.750893 L662.9375,583.890625 L632.254464,576.484375 C626.541071,575.108929 623.049554,569.395536 624.425,563.682143 C625.800446,557.96875 631.513839,554.477232 637.227232,555.852679 Z M359.810268,563.999554 L359.810268,588.016964 C359.810268,594.894196 364.677232,600.925 371.448661,602.40625 L371.448661,602.40625 L440.75,617.112946 C445.087946,618.065179 449.531696,616.901339 453.023214,614.150446 C456.408929,611.29375 458.419196,607.167411 458.419196,602.723661 L458.419196,602.723661 L458.525,602.723661 L458.525,588.757589 L359.810268,563.999554 Z M686.743304,468.882143 C689.917411,471.104018 691.610268,474.912946 691.187054,478.721875 L688.753571,499.988393 L721.975893,486.128125 C727.371875,483.90625 733.614286,486.445536 735.836161,491.841518 C738.058036,497.2375 735.51875,503.479911 730.122768,505.701786 L680.183482,526.545089 C678.808036,526.8625 677.432589,527.179911 676.057143,527.179911 C673.835268,527.179911 671.507589,526.439286 669.708929,525.063839 C666.746429,522.841964 665.159375,519.138839 665.582589,515.435714 L667.910268,495.544643 L639.554911,509.510714 C634.264732,512.05 628.022321,509.933929 625.377232,504.749554 C622.837946,499.459375 624.954018,493.216964 630.138393,490.571875 L675.951339,468.035714 C679.442857,466.342857 683.569196,466.660268 686.743304,468.882143 Z M717.320536,371.966071 C719.013393,377.573661 715.945089,383.498661 710.3375,385.191518 L675.951339,395.771875 L691.504464,410.478571 C694.361161,413.123661 695.419196,417.144196 694.466964,420.847321 C693.514732,424.550446 690.446429,427.512946 686.743304,428.359375 L637.121429,440.315179 C636.275,440.844196 635.428571,440.95 634.582143,440.95 C629.820982,440.95 625.483036,437.670089 624.319196,432.803125 C622.94375,427.089732 626.435268,421.376339 632.148661,420.000893 L662.831696,412.594643 L648.230804,398.734375 C645.479911,396.195089 644.316071,392.280357 645.1625,388.683036 C646.008929,384.979911 648.759821,382.123214 652.357143,380.959375 L704.095089,364.983036 C709.702679,363.290179 715.627679,366.358482 717.320536,371.966071 Z" id="Combined-Shape" fill="#FFFFFF" fill-rule="nonzero"></path>
    </g>
</svg>