<?xml version="1.0" encoding="UTF-8"?>
<svg width="1000px" height="1000px" viewBox="0 0 1000 1000" version="1.1" xmlns="http://www.w3.org/2000/svg" xmlns:xlink="http://www.w3.org/1999/xlink">
    <!-- Generator: Sketch 64 (93537) - https://sketch.com -->
    <title>socials</title>
    <desc>Created with Sketch.</desc>
    <g id="socials" stroke="none" stroke-width="1" fill="none" fill-rule="evenodd">
        <circle id="Oval-Copy-5" fill="#222222" cx="500" cy="500" r="500"></circle>
        <path d="M728.473243,585.799526 C727.283371,586.320892 721.036547,589.151162 711.145742,593.247605 L689.356225,706.16047 C688.25321,711.778761 684.032431,716.266583 678.49865,717.704991 C677.234335,718.029228 675.936486,718.204206 674.631568,718.226356 C670.39983,718.159655 666.396867,716.290552 663.625259,713.087182 L587.324765,624.976418 L579.888069,625.944668 L540.547951,729.175031 C538.511661,734.520844 533.598096,738.226132 527.905569,738.708571 L526.641331,738.708571 C521.359625,738.676642 516.491019,735.841725 513.850215,731.260493 L454.356652,630.93488 L453.16678,630.93488 L391.739677,724.557223 C388.988676,728.74096 384.322215,731.259668 379.320395,731.260493 L377.386855,731.260493 C371.733409,730.526694 366.996131,726.621136 365.190674,721.205588 L328.973968,612.910531 C322.727144,611.420915 316.405953,609.9313 310.010395,608.218242 C304.4994,607.246933 299.999088,603.259973 298.363973,597.900331 C296.728858,592.54069 298.235678,586.715464 302.263492,582.825149 C306.291306,578.934833 312.158425,577.637847 317.44709,579.46866 C544.191932,639.872574 713.89732,559.954695 715.682127,558.911964 C720.477787,556.610249 726.135233,557.045747 730.52336,560.05441 C734.911487,563.063073 737.363635,568.187813 736.956102,573.498191 C736.548569,578.808569 733.34327,583.497812 728.54761,585.799526 L728.473243,585.799526 Z M684.299272,268.734838 C682.12864,265.415473 678.725413,263.10062 674.844313,262.303637 C670.963213,261.506654 666.925016,262.293412 663.625259,264.489434 C468.56074,393.341186 281.750952,371.592798 279.891779,371.369355 C271.677432,370.320423 264.16936,376.139332 263.12203,384.366252 C262.074701,392.593172 267.884717,400.112736 276.099064,401.161668 C277.437669,401.161668 284.056328,402.055438 294.913903,402.651284 L351.284054,502.604493 C353.951462,507.231749 358.889045,510.073783 364.223904,510.052689 L365.116307,510.052689 C370.820191,509.704928 375.820857,506.11515 377.98179,500.816954 L422.601962,393.117744 L430.038658,391.77709 L500.017961,477.206546 C502.834859,480.63873 507.034405,482.632471 511.470472,482.643644 C512.649915,482.646171 513.824736,482.495964 514.965719,482.196759 C520.503684,480.880175 524.805776,476.513663 526.046395,470.950161 L550.884957,356.771122 L551.851728,356.771122 L639.455999,425.889288 C642.072278,427.922862 645.291387,429.023752 648.603135,429.017481 C650.86939,429.02677 653.107798,428.517263 655.147426,427.527865 C660.385929,425.029573 663.695674,419.70843 663.625259,413.897882 L663.625259,299.942286 C669.128414,296.51617 674.631568,293.015573 680.134723,289.366015 C686.966948,284.816454 688.830344,275.585189 684.299272,268.734838 Z" id="Shape" fill="#FFFFFF" fill-rule="nonzero"></path>
    </g>
</svg>