<?xml version="1.0" encoding="UTF-8"?>
<svg width="1000px" height="1000px" viewBox="0 0 1000 1000" version="1.1" xmlns="http://www.w3.org/2000/svg" xmlns:xlink="http://www.w3.org/1999/xlink">
    <!-- Generator: Sketch 64 (93537) - https://sketch.com -->
    <title>uaa</title>
    <desc>Created with Sketch.</desc>
    <g id="uaa" stroke="none" stroke-width="1" fill="none" fill-rule="evenodd">
        <circle id="Oval-Copy-12" fill="#222222" cx="500" cy="500" r="500"></circle>
        <path d="M390.194229,516.385064 C390.776731,514.833981 392.506343,514.048791 394.057426,514.631293 L394.057426,514.631293 L499.010261,554.045815 C499.690619,554.30132 500.440594,554.301165 501.120846,554.045379 L501.120846,554.045379 L605.930748,514.635138 C606.132799,514.559163 606.34246,514.505218 606.556088,514.47424 C608.195792,514.236463 609.71779,515.37295 609.955566,517.012654 L609.955566,517.012654 L622.114081,600.857729 C622.239845,601.725002 621.980104,602.603906 621.403112,603.263497 C601.984257,625.461953 561.538432,636.561181 500.065636,636.561181 C438.596394,636.561181 398.066891,625.463237 378.477129,603.267347 C377.893223,602.605761 377.630195,601.720659 377.758032,600.847561 L377.758032,600.847561 L390.034364,517.005146 C390.065377,516.793341 390.118971,516.585463 390.194229,516.385064 Z M499.013714,368.468574 C499.692005,368.214703 500.439238,368.21478 501.117477,368.468789 L501.117477,368.468789 L728.892622,453.773366 C729.704977,454.077603 730.345875,454.718577 730.650016,455.530968 C731.230929,457.082646 730.443968,458.811453 728.89229,459.392366 L728.89229,459.392366 L678.081318,478.414837 L678.081318,558.611064 C681.267629,560.402491 683.314266,563.58526 683.314266,567.424886 L683.314266,567.424886 L683.314266,569.717913 C683.314266,572.399083 682.287964,574.835424 680.503869,576.626851 L680.503869,576.626851 L685.980924,606.672127 C686.013283,606.849637 686.029561,607.029705 686.029561,607.21014 C686.029561,608.866995 684.686415,610.21014 683.029561,610.21014 L683.029561,610.21014 L664.175552,610.21014 C663.998737,610.21014 663.822269,610.194509 663.648207,610.163428 C662.017151,609.872183 660.93102,608.31385 661.222265,606.682795 L661.222265,606.682795 L666.589121,576.626851 C664.936298,574.835424 663.659387,572.405054 663.659387,569.723884 L663.659387,569.723884 L663.659387,567.430858 C663.659387,563.722603 665.825362,560.408463 668.892334,558.867835 L668.892334,558.867835 L668.892334,484.79829 L664.936298,483.263634 L608.788025,504.468161 L501.115261,544.681831 C500.438346,544.934646 499.692925,544.934646 499.01601,544.681831 L499.01601,544.681831 L391.343246,504.468161 L271.103372,459.388781 C270.291383,459.084357 269.650846,458.443465 269.346873,457.631307 C268.766093,456.079579 269.553203,454.350839 271.104931,453.77006 L271.104931,453.77006 Z" id="Combined-Shape" fill="#FFFFFF" fill-rule="nonzero"></path>
    </g>
</svg>