<?xml version="1.0" encoding="UTF-8"?>
<svg width="1000px" height="1000px" viewBox="0 0 1000 1000" version="1.1" xmlns="http://www.w3.org/2000/svg" xmlns:xlink="http://www.w3.org/1999/xlink">
    <!-- Generator: Sketch 64 (93537) - https://sketch.com -->
    <title>utsu</title>
    <desc>Created with Sketch.</desc>
    <g id="utsu" stroke="none" stroke-width="1" fill="none" fill-rule="evenodd">
        <circle id="Oval" fill="#222222" cx="500" cy="500" r="500"></circle>
        <path d="M507.496416,636 C536.71395,652.965418 564.8897,669.3245 594.496416,686.515372 C564.877803,703.702827 536.702053,720.051662 507.496416,737 L507.496416,636 Z M493.496416,636 L493.496416,737 C464.511683,720.186024 436.341224,703.843469 406.496416,686.530745 C436.144442,669.310255 464.306419,652.954035 493.496416,636 Z M399.496416,574 C428.776442,590.986987 457.049397,607.391347 486.496416,624.47601 C457.056213,641.572667 428.747473,658.013013 399.496416,675 L399.496416,574 Z M385.496416,575 L385.496416,675 C356.400576,658.288579 328.194675,642.088715 298.496416,625.032291 C327.893465,608.125425 356.17638,591.860979 385.496416,575 Z M600.496416,574 L600.496416,675 C571.168438,657.954127 542.922787,641.534777 513.496416,624.430861 C542.89734,607.388402 571.275314,590.938323 600.496416,574 Z M615.496416,575 C644.534541,591.676583 673.099795,608.081173 702.496416,624.963451 C673.292699,641.759031 644.889623,658.093923 615.496416,675 L615.496416,575 Z M292.496416,512 C321.693536,528.757023 349.853212,544.920922 379.496416,561.93287 C349.97627,578.921024 321.755065,595.163101 292.496416,612 L292.496416,512 Z M708.496416,512 L708.496416,612 C679.699305,595.455857 651.521119,579.267375 621.496416,562.020421 C651.174042,544.957253 679.357357,528.753454 708.496416,512 Z M386.496416,450 L386.496416,551 C356.761272,533.971059 328.128824,517.573951 298.496416,500.604456 C328.41306,483.40227 357.090026,466.910048 386.496416,450 Z M615.496416,450 C644.633992,466.75349 673.338391,483.255559 703.496416,500.595132 C673.728764,517.645911 645.234961,533.967908 615.496416,551 L615.496416,450 Z M708.496416,388 L708.496416,489 C679.453726,472.129584 651.32972,455.793161 621.496416,438.462347 C650.872086,421.424202 679.090009,405.056971 708.496416,388 Z M292.496416,388 C321.646192,404.71717 349.914461,420.928739 379.496416,437.894454 C349.991635,454.887406 321.821122,471.112594 292.496416,488 L292.496416,388 Z M615.496416,325 C645.306649,342.303296 673.770039,358.823506 703.496416,376.078823 C673.812823,393.255317 645.092729,409.874912 615.496416,427 L615.496416,325 Z M385.496416,325 L385.496416,426 C356.751735,409.36659 328.234635,392.866084 298.496416,375.656758 C327.776078,358.609302 355.705548,342.345637 385.496416,325 Z M708.496416,263 L708.496416,364 C679.336635,347.036666 651.092894,330.603597 621.496416,313.385394 C651.065601,296.25956 679.358811,279.874386 708.496416,263 Z M292.496416,263 C321.602707,279.846166 349.706333,296.112314 379.496416,313.355423 C349.851277,330.612221 321.728893,346.984449 292.496416,364 L292.496416,263 Z" id="Combined-Shape" fill="#FFFFFF" fill-rule="nonzero"></path>
    </g>
</svg>