<?xml version="1.0" standalone="no"?>
<!DOCTYPE svg PUBLIC "-//W3C//DTD SVG 20010904//EN"
 "http://www.w3.org/TR/2001/REC-SVG-20010904/DTD/svg10.dtd">
<svg version="1.0" xmlns="http://www.w3.org/2000/svg"
 width="914.000000pt" height="914.000000pt" viewBox="0 0 914.000000 914.000000"
 preserveAspectRatio="xMidYMid meet">
<metadata>
Created by potrace 1.11, written by Peter Selinger 2001-2013
</metadata>
<g transform="translate(0.000000,914.000000) scale(0.100000,-0.100000)"
fill="#000000" stroke="none">
<path d="M4329 9126 c-2 -2 -52 -7 -110 -10 -58 -4 -115 -8 -125 -10 -10 -2
-48 -7 -84 -11 -36 -3 -72 -8 -80 -10 -8 -2 -37 -7 -65 -10 -27 -3 -61 -7 -75
-10 -14 -3 -34 -7 -45 -9 -11 -3 -65 -14 -120 -25 -532 -107 -1114 -352 -1580
-664 -66 -44 -131 -88 -145 -99 -87 -66 -230 -177 -254 -198 -584 -496 -1015
-1084 -1300 -1772 -20 -48 -48 -120 -62 -160 -14 -40 -29 -82 -34 -93 -49
-106 -170 -608 -195 -805 -3 -19 -9 -66 -14 -105 -43 -310 -46 -778 -6 -1095
14 -113 18 -140 32 -220 8 -47 19 -112 24 -144 9 -56 79 -336 99 -401 82 -259
71 -229 160 -450 58 -142 207 -449 261 -536 19 -30 39 -64 46 -75 126 -207
330 -492 438 -610 5 -6 44 -49 85 -95 112 -124 246 -256 395 -389 32 -28 195
-161 250 -203 72 -55 255 -181 307 -212 9 -5 49 -29 87 -53 132 -80 349 -193
531 -275 208 -93 633 -232 835 -271 177 -35 275 -51 390 -66 50 -6 104 -13
120 -15 191 -27 736 -27 950 -1 17 2 57 7 90 10 33 4 83 11 110 16 28 5 68 12
91 15 62 7 265 51 394 85 63 17 122 32 131 35 9 2 78 24 155 50 614 207 1153
524 1633 960 207 188 422 427 597 665 71 96 244 355 244 364 0 3 15 29 34 58
34 54 148 276 206 403 143 310 284 764 335 1075 3 19 7 46 10 60 2 14 7 44 10
67 3 23 8 57 10 75 5 33 13 108 21 183 17 177 22 506 10 695 -13 200 -14 208
-41 390 -23 158 -26 171 -51 290 -243 1134 -912 2138 -1865 2797 -581 402
-1238 662 -1929 764 -41 6 -84 12 -95 14 -11 1 -56 6 -100 10 -44 4 -91 9
-105 12 -31 6 -605 14 -611 9z"/>
</g>
</svg>
