<svg width="213" height="72" viewBox="0 0 213 72" fill="none" xmlns="http://www.w3.org/2000/svg">
<path fill-rule="evenodd" clip-rule="evenodd" d="M135.397 52.0825C132.746 56.0275 128.552 58 122.816 58C117.803 58 113.67 56.3643 110.417 53.0928C107.163 49.8213 105.536 45.6598 105.536 40.6082C105.536 35.4605 107.211 31.2388 110.561 27.9433C113.911 24.6478 118.213 23 123.467 23C127.709 23 131.192 23.9863 133.915 25.9588C136.638 27.9313 138 30.457 138 33.5361C138 35.3162 137.494 36.7234 136.482 37.7577C135.469 38.7921 134.12 39.3093 132.433 39.3093C130.89 39.3093 129.637 38.8643 128.673 37.9742C127.709 37.0842 127.227 35.9656 127.227 34.6186C127.227 32.0687 128.649 30.5773 131.493 30.1443C130.191 28.4124 128.119 27.5464 125.275 27.5464C122.19 27.5464 119.756 28.6649 117.972 30.9021C116.189 33.1392 115.297 36.2302 115.297 40.1753C115.297 44.0722 116.141 47.0309 117.828 49.0515C119.611 51.2165 121.852 52.299 124.552 52.299C126.046 52.299 127.384 51.9261 128.565 51.1804C129.745 50.4347 130.601 49.4364 131.131 48.1856C131.613 46.9828 131.951 45.323 132.143 43.2062H137.855C137.711 47.0069 136.891 49.9656 135.397 52.0825ZM84.51 56.3041C82.7989 57.4347 80.5936 58 77.8943 58C74.1346 58 71.3389 56.8694 69.5072 54.6082C68.736 53.6942 68.2299 52.6959 67.9889 51.6134C67.7562 50.5683 67.6358 48.7495 67.6278 46.157L67.6274 34.5464C67.6274 32.0928 67.4587 30.5773 67.1212 30C66.6874 29.2302 65.6993 28.8454 64.1568 28.8454H63V24.0103H75.9422V44C75.9422 46.9347 76.1832 48.8832 76.6652 49.8454C77.4364 51.3368 78.9307 52.0825 81.1479 52.0825C83.9918 52.0825 86.185 50.7594 87.7275 48.1134C88.6915 46.4777 89.1735 44.2887 89.1735 41.5464V34.5464C89.1735 32.0928 89.0048 30.5773 88.6674 30C88.2336 29.2302 87.2455 28.8454 85.703 28.8454H81.4372V24.0103H97.4883V46.4536C97.4883 48.8591 97.657 50.3746 97.9944 51C98.4283 51.7698 99.4164 52.1546 100.959 52.1546H104.791V56.9897H89.1735V50.4948C87.7757 53.2371 86.2212 55.1735 84.51 56.3041Z" fill="#222222"/>
<path fill-rule="evenodd" clip-rule="evenodd" d="M177.311 17.2906C176.224 18.3668 174.932 18.9048 173.435 18.9048C171.89 18.9048 170.586 18.3668 169.523 17.2906C168.46 16.2145 167.929 14.9112 167.929 13.3807C167.929 11.898 168.473 10.6306 169.559 9.57833C170.646 8.52611 171.962 8 173.508 8C175.005 8 176.285 8.53807 177.347 9.6142C178.41 10.6903 178.941 11.9697 178.941 13.4524C178.941 14.9351 178.398 16.2145 177.311 17.2906ZM160.807 51.1889V55.9956H139V51.1889H142.26C143.806 51.1889 144.796 50.8062 145.231 50.041C145.569 49.4671 145.738 47.9605 145.738 45.5212V18.6179C145.738 16.1786 145.569 14.672 145.231 14.0981C144.748 13.3328 143.757 12.9502 142.26 12.9502H139V8.14348H154.069V45.5212C154.069 47.9605 154.238 49.4671 154.576 50.041C155.011 50.8062 156.001 51.1889 157.547 51.1889H160.807ZM185.244 55.9956V51.1889H181.405C179.859 51.1889 178.869 50.8062 178.434 50.041C178.096 49.4671 177.927 47.9605 177.927 45.5212V23.2094H162.858V28.0161H166.118C167.664 28.0161 168.654 28.3987 169.088 29.164C169.426 29.7379 169.595 31.2445 169.595 33.6837V45.5212C169.595 47.9605 169.426 49.4671 169.088 50.041C168.654 50.8062 167.664 51.1889 166.118 51.1889H162.858V55.9956H185.244ZM212 45.6647C212 53.2216 208.861 57 202.582 57C198.525 57 195.651 55.613 193.96 52.8389C193.381 51.8824 193.019 50.9497 192.874 50.041C192.734 49.1636 192.661 47.4836 192.657 45.0011L192.656 28.877H185.629V23.7833C192.101 23.4963 195.433 19.0244 195.627 10.3675H200.988V23.7833H210.623V28.877H200.988V44.7321C200.988 47.5539 201.133 49.2279 201.423 49.754C201.906 50.6628 202.702 51.1171 203.813 51.1171C205.069 51.1171 205.878 50.591 206.24 49.5388C206.603 48.4866 206.784 46.0952 206.784 42.3646V40.858H211.855C211.952 42.5798 212 44.182 212 45.6647Z" fill="#A52925"/>
<path fill-rule="evenodd" clip-rule="evenodd" d="M32.4443 0L32.5189 0.0115996C32.5727 0.161453 32.6366 0.308531 32.6786 0.461606C32.8764 1.18331 33.0656 1.90735 33.2629 2.6292C33.4713 3.39166 33.6908 4.15114 33.8954 4.91453C34.1002 5.67837 34.2893 6.44638 34.4913 7.21097C34.6907 7.96564 34.8989 8.71808 35.1008 9.4721C35.2562 10.0522 35.4078 10.6333 35.5613 11.2139L35.9029 12.5027C36.0628 13.1074 36.2188 13.7132 36.3834 14.3165C36.507 14.7694 36.6334 15.222 36.7799 15.6678C36.8031 15.7382 36.9363 15.8082 37.024 15.8157C37.3534 15.8436 37.6851 15.8433 38.0157 15.8578C38.7843 15.8912 39.5532 15.9188 40.321 15.9647C40.8823 15.9983 41.4418 16.0616 42.0027 16.1031C42.252 16.1215 42.3088 16.2686 42.3123 16.4784L42.3125 16.4905C42.3195 17.4568 42.3394 18.4231 42.3399 19.3893L42.3422 24.2188C42.3439 28.2434 42.3443 32.2681 42.3403 36.2927C42.3352 41.4559 42.3097 46.6192 42.3118 51.7825C42.3129 54.3263 42.3497 56.8702 42.3833 59.414C42.3947 60.2831 42.4405 61.1517 42.4678 62.0207L42.4748 62.2577C42.48 62.4483 42.5515 62.5277 42.7409 62.5225C44.0143 62.4877 45.2878 62.4557 46.5613 62.4231C47.1489 62.408 47.7365 62.3855 48.3242 62.3809C49.2022 62.3741 50.0804 62.3876 50.9583 62.3764C51.2243 62.373 51.4188 62.4549 51.5729 62.6698C52.2084 63.5555 52.8535 64.4344 53.486 65.3222C53.9267 65.9409 54.3512 66.5712 54.788 67.1926C54.8305 67.2532 54.9092 67.2885 54.971 67.3355C55.0113 67.2691 55.0658 67.2075 55.0897 67.1357L55.4268 66.1235C55.7074 65.2798 55.987 64.4358 56.2609 63.5901C56.5604 62.6656 56.8431 61.7356 57.1373 60.8095C57.3792 60.0478 57.6297 59.2888 57.8714 58.527C58.1306 57.7101 58.3797 56.8901 58.6413 56.0741C58.7944 55.5967 58.9685 55.126 59.1237 54.6492C59.3222 54.0393 59.5108 53.4262 59.7045 52.8148L59.8833 52.2499C59.9728 51.9675 60.0631 51.6853 60.1556 51.4039C60.188 51.3051 60.2455 51.2144 60.2915 51.12L60.3687 51.101C60.462 51.2734 60.5715 51.4391 60.646 51.6192L60.959 52.3764C61.3238 53.26 61.6868 54.1443 62.0404 55.0323C63.0473 57.5604 63.9817 60.1181 65.1672 62.5725C65.2602 62.7651 65.359 62.955 65.4503 63.1485C65.5328 63.3232 65.6724 63.3675 65.8558 63.3671C67.413 63.3636 212.884 63.3606 213 63.3577V64.6961C212.645 64.6966 67.2734 64.6797 65.4332 64.6969L64.7431 64.7038C64.4349 64.707 64.2733 64.6149 64.1376 64.3298C62.991 61.9207 61.9454 59.4691 60.9752 56.9849C60.8582 56.6851 60.7529 56.3808 60.6385 56.08C60.6018 55.9838 60.5528 55.8922 60.5095 55.7984L60.4388 55.7982L60.2953 56.2614L60.1516 56.7245C59.9014 57.5273 59.6784 58.3399 59.3944 59.1306C58.8478 60.6525 58.2781 62.1664 57.6964 63.6755C57.0406 65.3771 56.3464 67.0641 55.6975 68.7684C55.3279 69.739 55.0166 70.7316 54.6754 71.713C54.6487 71.7899 54.5934 71.8569 54.5093 72L54.476 71.9128C54.3568 71.598 54.2662 71.3383 54.1565 71.0869C53.5496 69.6955 52.9657 68.293 52.3152 66.922C51.9306 66.1115 51.4448 65.3476 50.9833 64.5754C50.9253 64.4783 50.7374 64.4101 50.6095 64.4099C48.9948 64.4077 47.3797 64.4421 45.7653 64.423C44.4465 64.4073 43.1282 64.3442 41.8099 64.2936L41.5462 64.2836C41.2374 64.2722 41.1952 64.2274 41.185 63.9422L41.1841 63.9143C41.1381 62.2723 41.0879 60.6304 41.046 58.9883C41.0096 57.5604 40.9792 56.1324 40.9518 54.7043C40.9023 52.1287 40.8569 49.553 40.81 46.9773C40.7763 45.1279 40.7471 43.2785 40.708 41.4293C40.6572 39.0273 40.5949 36.6254 40.5448 34.2234C40.5034 32.2423 40.4721 30.2609 40.4373 28.2796C40.4108 26.769 40.4026 25.2577 40.3557 23.7477C40.3027 22.04 40.2168 20.3333 40.1415 18.6264C40.1327 18.4288 40.1195 18.2276 40.071 18.0375C40.0486 17.95 39.9463 17.838 39.8622 17.8197C39.6457 17.7727 39.4193 17.758 39.1965 17.7548C38.2443 17.7411 37.292 17.7334 36.3397 17.731C36.1786 17.7306 36.1011 17.6711 36.0608 17.5175C35.8994 16.9037 35.725 16.2932 35.5637 15.6795C35.3119 14.7223 35.0648 13.7638 34.8193 12.805C34.5148 11.6149 34.2181 10.4229 33.9105 9.23357C33.6172 8.09943 33.3127 6.96817 33.0167 5.83472C32.9041 5.40385 32.8042 4.96971 32.6923 4.53863C32.6609 4.41778 32.607 4.30277 32.5634 4.18504L32.479 4.1897L32.2922 4.89738C32.2612 5.01535 32.2303 5.13337 32.1997 5.25147C31.9349 6.27397 31.6695 7.29628 31.4072 8.31948C31.1123 9.47037 30.8184 10.6216 30.5281 11.7737L30.3627 12.4296C30.17 13.1949 29.9783 13.9605 29.7959 14.7282C29.638 15.3922 29.4918 16.0591 29.355 16.7277L29.3097 16.9507C29.2572 17.2112 29.1558 17.3678 28.8688 17.3882C27.8705 17.4591 26.8743 17.5758 25.8751 17.6115C23.9063 17.6819 21.9351 17.6868 19.9667 17.7631C18.6194 17.8152 17.2752 17.9454 15.929 18.0331C15.6559 18.051 15.5243 18.1814 15.5012 18.4453C15.4279 19.2829 15.2975 20.1195 15.287 20.9578C15.2487 23.9886 15.2463 27.0198 15.2393 30.0509C15.2372 30.9671 15.2615 31.8836 15.278 32.7999L15.3032 34.2078C15.3244 35.381 15.3464 36.5542 15.3733 37.7273C15.4068 39.1923 15.4478 40.6571 15.4869 42.1219L15.5102 43.0008C15.5559 44.7587 15.6072 46.5164 15.6449 48.2745L15.6739 49.6254C15.7173 51.6519 15.759 53.6784 15.7845 55.7051C15.8135 58.0092 15.815 60.3138 15.8218 62.6181C15.8236 63.1959 15.7967 63.7737 15.7886 64.3515C15.7856 64.564 15.7165 64.6756 15.4838 64.6863L15.4694 64.6869C13.9555 64.7289 12.4422 64.8099 10.9282 64.8269C8.73395 64.8516 6.53924 64.8331 4.34468 64.8328L1.66221 64.8318C1.21513 64.8317 0.76805 64.8317 0.320971 64.8318C0.213964 64.8319 0.106957 64.8403 0 64.8448V62.8124C0.769822 62.8025 1.53969 62.782 2.30947 62.7851C3.7588 62.7908 5.20809 62.8049 6.65718 62.826C7.37666 62.8365 8.09623 62.8989 8.81486 62.8869C9.9647 62.8677 11.1141 62.8124 12.2631 62.7591C12.6638 62.7406 13.0624 62.6787 13.4627 62.6524L13.572 62.6461C14.0306 62.6241 14.1159 62.2836 14.214 61.9502C14.5698 60.7411 14.5861 59.5021 14.5402 58.258L14.5379 58.1968C14.5194 57.7183 14.5051 57.2397 14.4859 56.7613C14.4555 56.0038 14.401 55.2466 14.3949 54.489C14.3784 52.4652 14.3848 50.4411 14.3766 48.4171C14.3727 47.4672 14.3578 46.5174 14.3448 45.5676C14.3124 43.2065 14.2779 40.8454 14.2449 38.4843C14.2335 37.675 14.2241 36.8657 14.214 36.0564C14.1789 33.2496 14.1405 30.4429 14.1099 27.6361C14.0932 26.0999 14.093 24.5636 14.0789 23.0274C14.06 20.9803 14.0348 18.9333 14.0124 16.8862C14.0119 16.8421 14.0121 16.7981 14.0122 16.754L14.0119 16.6879C14.0093 16.4651 14.1043 16.3645 14.3427 16.364C15.0712 16.3624 15.7999 16.3471 16.5283 16.3288C18.1414 16.2883 19.7543 16.2383 21.3675 16.2002C23.2129 16.1567 25.0584 16.1161 26.904 16.0902C27.1535 16.0867 27.2733 16.0151 27.3451 15.7781C27.5816 14.9974 27.8369 14.2223 28.0834 13.4446L28.392 12.4721C28.5976 11.8237 28.8027 11.1752 29.0046 10.5256C29.2022 9.88989 29.3853 9.24968 29.5801 8.61304C29.7869 7.93703 30.0013 7.26331 30.21 6.58786C30.4161 5.92063 30.6109 5.24978 30.8259 4.58538C31.0066 4.02718 31.1958 3.47172 31.3858 2.91654L31.5758 2.36137C31.8128 1.66792 32.0524 0.975312 32.2959 0.284092C32.331 0.184355 32.3941 0.094433 32.4443 0ZM27.4368 49.6776C28.2457 49.7042 29.0445 49.8379 29.7923 50.1943C30.9692 50.7551 31.7232 51.671 32.0239 53.02C32.4006 54.7101 32.4715 56.4175 32.4087 58.1405C32.3941 58.5399 32.3978 58.9402 32.3961 59.3401C32.3916 60.4449 32.3899 61.5497 32.3838 62.6545C32.3828 62.8323 32.4636 62.899 32.622 62.8936C33.0092 62.8802 33.3965 62.8632 33.7838 62.8582L33.8232 62.8579C34.1609 62.8573 34.1706 62.9156 34.0317 63.2476L34.0264 63.2602C33.8427 63.6969 33.5851 63.9246 33.1061 63.9507L33.0835 63.9518C32.1895 63.9883 31.2999 64.1366 30.4059 64.1788C29.6045 64.2167 28.8104 64.1092 28.0633 63.7606C28.019 63.74 27.9675 63.7259 27.9345 63.6923C27.8975 63.6545 27.8516 63.5934 27.8583 63.551C27.864 63.5148 27.9358 63.4726 27.9834 63.464C28.5161 63.368 29.0489 63.2718 29.5835 63.1885C29.9397 63.133 30.2978 63.0909 30.6556 63.0465L30.8089 63.0273C31.0188 63.0008 31.1684 62.9333 31.1928 62.664L31.2491 62.0406C31.3908 60.4615 31.5196 58.8824 31.4911 57.2914C31.4702 56.1274 31.3545 54.9773 31.0468 53.8633C30.6258 52.339 29.6732 51.325 28.2154 50.8873C27.3412 50.6248 26.485 50.6933 25.7143 51.2559C25.1563 51.6632 24.794 52.2493 24.4664 52.8604C24.2324 53.297 24.0015 53.7354 23.7655 54.1707C23.7202 54.2543 23.6579 54.3277 23.5648 54.4612C23.5257 54.3277 23.4859 54.2599 23.4898 54.1949C23.5608 53.0293 23.838 51.9405 24.5117 50.9816C25.2481 49.9337 26.2814 49.6397 27.4368 49.6776ZM23.0931 31.0542C23.5109 31.3115 23.725 31.7167 23.7632 32.1783L23.7815 32.397C23.9317 34.1825 24.1078 35.969 24.0297 37.7635C23.9971 38.5105 23.8709 39.2536 23.7846 39.9982C23.7784 40.0508 23.7497 40.1008 23.7315 40.152L23.6477 40.186C23.5204 39.9576 23.3702 39.7386 23.2703 39.499C22.987 38.8205 22.9418 38.1018 22.9719 37.3791C23.0159 36.3217 23.0982 35.2654 23.1236 34.2077C23.1458 33.2808 22.9213 32.414 22.3321 31.667L22.2787 31.6006C22.028 31.2922 21.9748 31.2849 21.6065 31.4971C21.0207 31.8347 20.4394 32.1798 19.8532 32.5166C19.7839 32.5564 19.6959 32.5642 19.6165 32.5868C19.6024 32.4977 19.5624 32.4038 19.5783 32.3204C19.6942 31.7143 20.0793 31.3043 20.6125 31.0342C21.4369 30.6166 22.2723 30.5484 23.0931 31.0542ZM36.3708 30.4805C36.4547 30.5467 36.5119 30.6969 36.5294 30.8178C36.6401 31.5805 36.7922 32.3429 36.8255 33.111C36.8909 34.6231 36.8914 36.1388 36.9108 37.6532C36.9161 38.0725 36.9064 38.4933 36.8795 38.9115C36.8485 39.3917 36.6017 39.7752 36.4191 40.186L36.3367 40.1754C36.2981 39.9802 36.2426 39.7869 36.2237 39.5894C36.1122 38.4246 36.1309 37.2575 36.1687 36.0891L36.1796 35.7585C36.2219 34.4526 36.2483 33.1458 36.0427 31.8491C36.0235 31.7278 35.9862 31.6101 35.9645 31.4892L35.9547 31.4354C35.8926 31.1023 35.8602 31.0897 35.525 31.1879C34.9738 31.3494 34.4259 31.5251 33.8744 31.6854C33.7738 31.7147 33.6627 31.6994 33.5565 31.7047C33.5867 31.5931 33.5966 31.4675 33.6502 31.3722C34.029 30.6978 34.5409 30.2316 35.2799 30.1487C35.6798 30.1038 36.048 30.2257 36.3708 30.4805ZM29.9063 31.3124C30.1977 31.6103 30.3641 31.9583 30.4025 32.3791C30.4856 33.2925 30.6023 34.2028 30.6895 35.1159C30.7866 36.1334 30.7858 37.1523 30.6736 38.1692C30.629 38.5742 30.5702 38.9777 30.5152 39.3814L30.5129 39.396C30.5033 39.4495 30.4813 39.5069 30.4475 39.6279C30.3519 39.4912 30.2634 39.4151 30.2402 39.3231C30.1083 38.8001 29.9147 38.277 29.8878 37.7468C29.8438 36.8797 29.9143 36.0072 29.9318 35.1368L29.9332 35.0576C29.9474 34.1864 29.9038 33.3238 29.485 32.5234C29.2533 32.0805 28.915 31.7322 28.4969 31.4558L28.4729 31.4401C28.263 31.3045 28.208 31.3176 28.0441 31.5133L28.0254 31.5358C27.7089 31.9198 27.3877 32.3 27.0716 32.6843C27.0269 32.7387 27.0001 32.8074 26.965 32.8695L26.9074 32.8133C26.8947 32.8046 26.8726 32.7977 26.8706 32.787C26.7249 32.0291 27.2233 31.1127 27.9429 30.8125C28.5727 30.5498 29.3528 30.7467 29.9063 31.3124Z" fill="#222222"/>
</svg>
