<svg width="100" height="100" viewBox="0 0 100 100" fill="none" xmlns="http://www.w3.org/2000/svg">
<path fill-rule="evenodd" clip-rule="evenodd" d="M50 100C77.6142 100 100 77.6142 100 50C100 22.3858 77.6142 0 50 0C22.3858 0 0 22.3858 0 50C0 77.6142 22.3858 100 50 100ZM47.6233 44.753C42.2717 39.6856 35.8643 34.0038 34.3954 32.707C38.464 29.0761 43.8157 26.8486 49.6793 26.7703C48.3968 31.471 48.0553 36.847 51.0997 41.2341C51.1763 41.3444 51.2591 41.4576 51.3398 41.5664C49.9906 42.6349 48.7282 43.7078 47.6233 44.753ZM26.5756 49.76C26.6471 45.8802 27.655 42.2231 29.393 39.0239V39.024C30.424 37.1261 31.7056 35.3844 33.2 33.849C34.4512 34.9556 41.0258 40.7888 46.4437 45.9191C46.3241 46.0448 46.2048 46.1725 46.0916 46.2967C44.8607 47.6477 43.5775 49.4013 42.3061 51.3054C42.3048 51.3049 42.3034 51.3037 42.3019 51.3025C42.2997 51.3007 42.2974 51.2988 42.295 51.2988C38.093 48.0442 32.5343 48.2014 26.5756 49.76ZM26.6064 51.4609L26.6064 51.4611L26.6063 51.4611L26.6064 51.4609ZM26.6064 51.4611C32.4929 49.8633 37.5693 49.7316 41.2747 52.6016C41.2991 52.6202 41.323 52.6403 41.3468 52.6604L41.3469 52.6604L41.3469 52.6605L41.3469 52.6605L41.347 52.6605C41.3633 52.6742 41.3796 52.688 41.396 52.7011C40.014 54.8654 38.6652 57.1551 37.4755 59.2852C35.6118 62.622 34.1459 65.5179 33.4915 66.8306C29.493 62.8636 26.9269 57.4587 26.6064 51.4611ZM52.4623 40.293C49.7366 36.3652 50.0666 31.3609 51.3703 26.8083C56.5128 27.1069 61.2115 29.0647 64.9368 32.1534C63.6787 32.9352 61.0508 34.5951 58.0191 36.6794C56.2827 37.8731 54.4316 39.1984 52.6547 40.553C52.6327 40.5232 52.6101 40.4932 52.5874 40.4631L52.5873 40.4631L52.5873 40.4631L52.5873 40.463C52.5446 40.4065 52.5016 40.3496 52.4623 40.293ZM39.7907 58.5516C39.4915 59.0714 39.2005 59.5831 38.9183 60.0884C36.5762 64.2816 34.9677 67.5343 34.7456 67.9866C38.3808 71.105 42.9881 73.1181 48.0455 73.5354C47.7063 63.2555 45.6629 57.1568 42.6276 53.8442C41.6518 55.3818 40.6878 56.9916 39.7907 58.5516ZM43.5396 52.4196L43.5396 52.4195V52.4197L43.5396 52.4196ZM43.5396 52.4196C47.1782 56.1126 49.3707 62.7522 49.7107 73.6179C49.7572 73.6179 49.803 73.6207 49.8488 73.6234H49.8489C49.8948 73.6262 49.9408 73.629 49.9875 73.629C56.1998 73.629 61.8496 71.2047 66.0429 67.2589C64.6075 65.5759 55.6399 55.0988 50.4678 49.8361C49.6496 49.0036 48.674 48.0507 47.6354 47.054C47.5537 47.1398 47.4729 47.2291 47.3945 47.3157L47.3943 47.3159L47.3139 47.4046C46.1289 48.705 44.8312 50.4702 43.5396 52.4196ZM48.8198 45.9055C49.85 46.8946 50.8265 47.8348 51.6474 48.67C56.8496 53.9633 65.5878 64.1819 67.2113 66.0864C71.0668 61.9103 73.4244 56.3228 73.4244 50.191C73.4244 49.9945 73.4172 49.8021 73.4099 49.6086C73.4074 49.5405 73.4048 49.4723 73.4025 49.4037C62.4934 49.0966 55.98 46.5601 52.408 42.8383C51.0938 43.8794 49.872 44.9173 48.82 45.9055H48.8198ZM73.2993 47.7505C62.85 47.4345 56.9189 45.0279 53.7355 41.8026C55.4595 40.4872 57.2561 39.1993 58.9491 38.0355C62.4501 35.6285 65.3398 33.831 66.2149 33.2935C70.1033 37.0277 72.7129 42.0888 73.2993 47.7505Z" fill="#A52925"/>
</svg>