<svg width="100" height="100" viewBox="0 0 100 100" fill="none" xmlns="http://www.w3.org/2000/svg">
<path fill-rule="evenodd" clip-rule="evenodd" d="M50 100C77.6142 100 100 77.6142 100 50C100 22.3858 77.6142 0 50 0C22.3858 0 0 22.3858 0 50C0 77.6142 22.3858 100 50 100ZM63.2683 31.6276C63.845 31.7429 64.5371 32.4347 64.6524 33.0112C64.7714 33.6057 64.645 34.2274 64.517 34.8576C64.4587 35.1441 64.4001 35.4325 64.3641 35.7208C63.4413 41.3705 63.0376 46.2708 63.2683 52.0935C63.5988 56.4706 61.8877 59.7829 60.8689 61.755C60.4654 62.5362 60.1704 63.1071 60.1541 63.4506C60.0695 66.3684 60.0779 68.3247 60.0885 70.7528C60.0923 71.6349 60.0964 72.5793 60.0964 73.6547C60.1541 74.8077 59.7504 75.2689 58.5969 75.5572C58.3086 75.6148 58.0346 75.6581 57.7607 75.7013C57.4868 75.7445 57.2128 75.7878 56.9245 75.8454C54.906 76.249 51.1573 76.249 49.6579 76.1337C48.7351 76.076 47.8124 75.9607 46.8896 75.8454C45.7362 75.7301 45.3902 75.1536 45.4479 74.0583C45.5344 72.0243 45.5235 69.9578 45.5127 67.9077C45.5091 67.2267 45.5055 66.5475 45.5055 65.8719C45.5055 63.9118 44.8135 62.2976 43.487 60.7987C42.4489 59.6457 41.5262 58.3197 40.8918 56.8785C39.8295 54.4228 38.8245 51.9288 37.8219 49.4407C37.0827 47.6064 36.3447 45.7752 35.586 43.9648C35.1247 42.9271 35.1824 41.8894 36.0474 41.1399C37.0278 40.3328 38.4696 41.4282 38.9887 42.4659C39.2304 42.9491 39.4617 43.4427 39.6936 43.9373C40.2363 45.0949 40.7816 46.2583 41.4685 47.3085C41.9299 48.0003 42.9103 48.6921 43.66 48.6921C44.9175 48.6921 44.8154 47.6729 44.7012 46.5323L44.6981 46.5014C44.3809 43.936 44.0638 41.385 43.7466 38.834C43.4294 36.2829 43.1122 33.7319 42.795 31.1664C42.7633 30.9449 42.7186 30.719 42.674 30.4935C42.5561 29.8976 42.4388 29.3047 42.5643 28.8027C42.5855 28.711 42.604 28.6168 42.6228 28.5217C42.7572 27.8397 42.8996 27.1168 44.0637 27.0156C44.8135 26.8426 45.6785 27.4768 45.8516 28.5145L47.5817 40.4481C47.697 40.967 48.2161 41.3129 48.7351 41.2552L48.9658 41.1976C49.4272 41.1399 49.6002 40.794 49.6002 40.2752V35.4902V26.4391C49.6002 26.3362 49.5979 26.2311 49.5956 26.125C49.5864 25.6962 49.5768 25.2523 49.7155 24.8825C49.8886 24.306 50.0039 24.1331 50.2923 23.9601C50.7536 23.6719 52.0224 23.7872 52.4261 24.1907C52.7145 24.5366 52.8298 24.7672 52.8298 25.1131C52.9164 27.1903 52.9055 29.3 52.8947 31.3934C52.8911 32.0888 52.8875 32.7824 52.8875 33.4724C52.8875 34.1621 52.8938 34.8582 52.9002 35.5563C52.9131 36.9591 52.926 38.3706 52.8875 39.7563C52.8875 39.8209 52.8871 39.8826 52.8868 39.9414C52.883 40.6711 52.8815 40.9713 53.5219 41.0246C54.0409 41.0823 54.5023 40.6211 54.5599 40.1022C54.7041 38.0556 54.8627 36.0235 55.0213 33.9913C55.1799 31.9591 55.3385 29.9269 55.4827 27.8803C55.598 26.6697 55.771 25.632 57.2128 25.632C58.6546 25.632 58.8276 26.7273 58.77 27.938C58.5393 32.2041 58.3086 36.4126 58.0202 40.6787V40.7364C57.9626 42.0047 59.808 42.1776 60.0387 40.967C60.2406 39.8716 60.4424 38.7618 60.6443 37.6521C60.8461 36.5423 61.048 35.4325 61.2498 34.3372C61.2782 34.1811 61.2996 34.0215 61.3209 33.8627C61.3861 33.3764 61.4503 32.8977 61.7112 32.55C62.0572 32.0888 62.807 31.5123 63.2683 31.6276ZM56.2642 54.6793C56.763 54.0899 57.2445 53.5209 57.5955 52.822C57.8266 52.3617 58 51.9015 58 51.4987C58 51.0385 57.8844 50.5782 57.7111 50.1179C57.3066 49.1399 56.671 48.507 55.5731 48.3344C55.1686 48.2769 54.8219 48.2769 54.4174 48.4495C53.8973 48.6796 53.6084 48.9673 53.3195 49.4275C53.171 49.6494 52.9747 50.1087 52.8074 50.5004C52.7144 50.7182 52.6303 50.9151 52.5683 51.0385C52.5394 51.0385 52.5249 51.0385 52.5177 51.0312C52.5105 51.024 52.5105 51.0097 52.5105 50.9809C52.4238 50.8371 52.3372 50.5351 52.2505 50.233C52.1638 49.931 52.0771 49.6289 51.9905 49.4851C51.7015 49.0823 51.3548 48.7371 50.8926 48.5645C50.0258 48.2193 49.159 48.3344 48.4079 48.8522C47.8878 49.1974 47.5411 49.7152 47.31 50.3481C47.021 51.1535 47.021 51.9015 47.3677 52.7069C47.7144 53.3973 48.1189 53.9727 48.639 54.548C49.5635 55.5836 50.6614 56.5617 51.7593 57.4247C51.9926 57.564 52.2259 57.7409 52.4287 57.8947C52.4771 57.9314 52.5238 57.9668 52.5683 58L52.6261 57.9425C53.8396 57.0219 54.9952 56.0439 56.0353 54.9507C56.1118 54.8594 56.1882 54.7691 56.2642 54.6793Z" fill="#A52925"/>
</svg>
