<?xml version="1.0" standalone="no"?>
<!DOCTYPE svg PUBLIC "-//W3C//DTD SVG 20010904//EN"
 "http://www.w3.org/TR/2001/REC-SVG-20010904/DTD/svg10.dtd">
<svg version="1.0" xmlns="http://www.w3.org/2000/svg"
 width="500.000000pt" height="500.000000pt" viewBox="0 0 500.000000 500.000000"
 preserveAspectRatio="xMidYMid meet">
<metadata>
Created by potrace 1.16, written by Peter Selinger 2001-2019
</metadata>
<g transform="translate(0.000000,500.000000) scale(0.100000,-0.100000)"
fill="#000000" stroke="none">
<path d="M2325 4994 c-258 -26 -503 -79 -690 -149 -597 -221 -1105 -681 -1380
-1250 -115 -237 -194 -497 -232 -760 -23 -165 -23 -505 0 -670 64 -444 240
-859 515 -1214 83 -108 291 -315 400 -401 282 -221 623 -389 957 -474 199 -51
360 -70 605 -70 312 0 524 34 810 130 123 41 389 168 510 244 228 142 492 377
642 571 276 356 450 767 515 1214 24 165 24 505 0 670 -107 732 -494 1344
-1114 1758 -126 84 -349 197 -498 252 -137 51 -340 102 -498 126 -126 19 -448
33 -542 23z m383 -1080 c42 -29 52 -65 52 -187 l0 -115 58 -7 c176 -21 381
-86 433 -138 46 -46 40 -85 -36 -237 -38 -75 -74 -134 -86 -141 -33 -17 -79
-13 -141 15 -121 54 -348 94 -468 82 -112 -11 -179 -35 -227 -81 -39 -38 -43
-46 -43 -90 0 -45 4 -52 48 -95 55 -53 126 -85 397 -182 190 -68 320 -129 411
-194 295 -209 349 -582 125 -852 -94 -113 -249 -208 -418 -257 l-78 -22 -5
-140 c-7 -204 -17 -213 -235 -213 -218 0 -235 15 -235 207 l0 122 -32 5 c-231
33 -344 61 -468 118 -136 61 -143 89 -66 265 62 140 96 183 146 183 17 0 72
-18 123 -40 382 -163 837 -101 837 113 0 120 -93 187 -417 298 -276 94 -422
170 -539 281 -246 232 -208 618 79 822 95 67 202 115 325 146 l42 11 0 112 c0
131 11 178 47 207 23 18 40 20 187 20 130 0 166 -3 184 -16z"/>
</g>
</svg>
