<svg width="100" height="100" viewBox="0 0 100 100" fill="none" xmlns="http://www.w3.org/2000/svg">
<path fill-rule="evenodd" clip-rule="evenodd" d="M50 100C77.6142 100 100 77.6142 100 50C100 22.3858 77.6142 0 50 0C22.3858 0 0 22.3858 0 50C0 77.6142 22.3858 100 50 100ZM54.5279 45.5906C54.5279 45.5906 57.9944 42.8566 63.193 40.8161C65.6771 39.8405 70.9686 38.4475 71.6384 38.7394C72.0701 39.4732 73.6523 46.5203 73.6993 49.9449C73.7464 53.3697 71.5424 61.0536 70.9676 61.3464C70.3909 61.6413 62.2949 59.3989 60.0861 58.1167C57.9772 56.8942 56.0429 55.1261 54.527 53.2727C54.5279 51.904 54.5279 45.5906 54.5279 45.5906ZM45.4721 45.5906C45.4721 45.5906 42.0038 42.8565 36.8066 40.8159C34.3236 39.8402 29.0314 38.4482 28.3617 38.7392C27.9298 39.4729 26.3478 46.5202 26.3007 49.9449C26.2537 53.3696 28.4576 61.0536 29.0332 61.3464C29.6089 61.6413 37.7045 59.3991 39.9131 58.1167C42.0219 56.8942 43.9561 55.126 45.473 53.2726C45.4721 51.903 45.4721 45.5906 45.4721 45.5906ZM46.5099 53.3117V45.418C47.837 45.0835 52.1839 45.0835 53.5099 45.418V53.3117C52.1775 53.814 47.8425 53.814 46.5099 53.3117Z" fill="#A52925"/>
</svg>
