<svg width="100" height="100" viewBox="0 0 100 100" fill="none" xmlns="http://www.w3.org/2000/svg">
<path fill-rule="evenodd" clip-rule="evenodd" d="M50 100C77.6142 100 100 77.6142 100 50C100 22.3858 77.6142 0 50 0C22.3858 0 0 22.3858 0 50C0 77.6142 22.3858 100 50 100ZM62.9222 70.5681C64.5429 67.7691 66.753 65.6331 69.4788 63.8653L72.5729 72.4832C73.0886 73.7354 72.7939 73.9564 71.6152 73.4408L62.9222 70.5681ZM66.8267 61.2136L56.6603 50.9752C58.4283 49.1338 59.8281 47.5133 60.5648 46.2612L55.2606 40.9578C54.0082 41.6208 52.3138 42.9466 50.3984 44.7144L34.1174 28.2887C33.8227 27.9941 33.528 27.9205 33.1597 27.9205C29.9919 28.5834 27.7818 30.7931 27.1188 34.034C27.0451 34.3287 27.1924 34.6969 27.4871 34.9916L43.6944 51.2699C36.7695 58.562 29.6972 66.9589 28.5185 68.3584C25.498 71.894 29.2552 75.4295 32.7913 72.6305C34.1911 71.5993 42.7367 64.4546 50.03 57.6044L60.2701 67.9165C61.9645 65.1175 64.1009 62.9078 66.8267 61.2136ZM68.3737 40.5159C71.2468 37.5696 73.3833 32.0453 72.6466 26.3C70.397 30.374 68.1474 30.7071 65.8556 31.0465C64.1696 31.2961 62.4607 31.5492 60.7121 33.2975C57.9863 36.0228 58.4283 39.1901 60.2701 41.1051C62.8485 43.6832 65.9426 43.0202 68.3737 40.5159Z" fill="#A52925"/>
</svg>
