<svg width="100" height="100" viewBox="0 0 100 100" fill="none" xmlns="http://www.w3.org/2000/svg">
<path fill-rule="evenodd" clip-rule="evenodd" d="M50 0C77.6142 0 100 22.3858 100 50C100 77.6142 77.6142 100 50 100C22.3858 100 0 77.6142 0 50C0 22.3858 22.3858 0 50 0ZM26.3485 45.1763C28.4629 57.1595 36.4006 64.4496 48.3368 65.605C41.7456 61.4299 37.068 55.4264 36.3179 47.5051C31.9593 45.5873 27.7423 45.2418 26.3485 45.1763ZM73.6168 45.1763C72.2226 45.2418 68.0104 45.5931 63.6447 47.5103C62.8944 55.4591 58.1742 61.4609 51.6285 65.605C63.5679 64.4499 71.5078 57.1561 73.6168 45.1763ZM50.0538 34.4C46.8717 38.3726 44.552 43.4215 44.1713 48.5418C43.7312 54.5007 46.378 60.8698 50.0538 65.4728C53.8248 61.072 56.43 53.9476 55.9066 48.2029C55.5081 43.8735 52.7542 37.7779 50.0538 34.4ZM38.1802 36.7139C34.8061 48.0469 38.3996 58.1043 48.4685 64.6133C43.5586 57.6177 41.833 49.9872 44.8691 41.9236C42.1235 39.0636 39.2416 37.3073 38.1802 36.7139ZM61.7829 36.7139C60.7158 37.3131 57.8345 39.0631 55.0895 41.9284C58.1843 50.1386 56.3227 57.6548 51.4968 64.6133C61.2849 57.8387 65.2511 48.3945 61.7829 36.7139Z" fill="#A52925"/>
</svg>
