<svg width="100" height="100" viewBox="0 0 100 100" fill="none" xmlns="http://www.w3.org/2000/svg">
<path fill-rule="evenodd" clip-rule="evenodd" d="M50 100C77.6142 100 100 77.6142 100 50C100 22.3858 77.6142 0 50 0C22.3858 0 0 22.3858 0 50C0 77.6142 22.3858 100 50 100ZM61.84 58.3C61.84 50.45 54.64 47.9 51.59 46.8C45.44 44.6 45.44 42.45 45.44 41.5C45.44 38.35 49.04 38.05 50.14 38C51.84 37.95 53.54 38.75 54.69 39.5C55.39 39.95 56.34 39.85 56.89 39.2L59.39 36.5C60.09 35.75 59.99 34.5 59.14 33.9C57.74 32.9 55.54 31.65 52.84 31.1V27.75C52.84 26.95 52.19 26.3 51.39 26.3H47.64C46.84 26.3 46.19 26.95 46.19 27.75V31.45C41.39 32.85 38.29 36.6 38.29 41.5C38.29 46.9 41.94 50.95 49.19 53.5C54.29 55.3 54.69 56.7 54.69 58.3C54.69 59.3 54.69 62 50.04 62C47.69 62 45.09 60.4 43.49 59.15C42.79 58.6 41.79 58.7 41.19 59.3L38.59 61.95C37.89 62.7 37.94 63.85 38.74 64.5C40.29 65.75 42.99 67.6 46.19 68.5V72.25C46.19 73.05 46.84 73.7 47.64 73.7H51.39C52.19 73.7 52.84 73.05 52.84 72.25V68.8C58.39 67.95 61.84 64 61.84 58.3Z" fill="#A52925"/>
</svg>
