<?xml version="1.0" standalone="no"?>
<!DOCTYPE svg PUBLIC "-//W3C//DTD SVG 20010904//EN"
 "http://www.w3.org/TR/2001/REC-SVG-20010904/DTD/svg10.dtd">
<svg version="1.0" xmlns="http://www.w3.org/2000/svg"
 width="500.000000pt" height="500.000000pt" viewBox="0 0 500.000000 500.000000"
 preserveAspectRatio="xMidYMid meet">
<metadata>
Created by potrace 1.16, written by Peter Selinger 2001-2019
</metadata>
<g transform="translate(0.000000,500.000000) scale(0.100000,-0.100000)"
fill="#000000" stroke="none">
<path d="M2325 4994 c-258 -26 -503 -79 -690 -149 -597 -221 -1105 -681 -1380
-1250 -115 -237 -194 -497 -232 -760 -23 -165 -23 -505 0 -670 64 -444 240
-859 515 -1214 83 -108 291 -315 400 -401 282 -221 623 -389 957 -474 199 -51
360 -70 605 -70 312 0 524 34 810 130 123 41 389 168 510 244 228 142 492 377
642 571 276 356 450 767 515 1214 24 165 24 505 0 670 -107 732 -494 1344
-1114 1758 -126 84 -349 197 -498 252 -137 51 -340 102 -498 126 -126 19 -448
33 -542 23z m68 -1255 c133 -84 256 -165 272 -181 26 -24 30 -36 30 -81 0 -47
-6 -61 -57 -138 -53 -79 -87 -109 -123 -109 -11 0 -15 -12 -15 -42 0 -48 -21
-100 -74 -182 l-35 -55 67 -38 c900 -502 1471 -827 1495 -849 91 -86 89 -230
-3 -326 -72 -74 -177 -95 -263 -51 -15 7 -343 237 -730 510 -386 272 -707 498
-714 500 -6 3 -30 -25 -53 -61 -45 -71 -97 -122 -134 -132 -21 -5 -23 -10 -19
-52 4 -40 -1 -55 -32 -107 -79 -129 -122 -164 -186 -151 -52 11 -529 316 -557
357 -33 47 -25 90 33 181 60 94 81 116 116 123 23 5 29 12 29 33 0 61 30 120
192 375 162 255 201 305 254 321 17 5 20 14 20 59 -1 47 5 61 57 140 62 96 97
121 155 113 20 -3 130 -66 275 -157z m198 -2014 c52 -19 94 -56 120 -107 19
-38 19 -38 84 -38 l65 0 0 -235 0 -235 -940 0 -940 0 0 235 0 235 65 0 c65 0
65 0 84 38 26 50 68 88 116 106 61 22 1283 23 1346 1z"/>
<path d="M2042 3730 c-24 -38 -42 -77 -40 -87 4 -21 484 -327 503 -319 19 7
107 146 101 161 -6 17 -482 315 -504 315 -11 0 -33 -26 -60 -70z"/>
<path d="M1912 3494 c-25 -13 -69 -75 -203 -286 l-171 -269 4 -50 c7 -73 20
-84 312 -261 91 -55 134 -61 186 -25 36 24 344 498 358 552 12 43 -2 94 -35
126 -15 15 -98 71 -183 124 -169 107 -208 120 -268 89z"/>
<path d="M2313 2829 c-27 -40 -27 -42 -8 -56 36 -26 1339 -947 1389 -980 54
-37 107 -43 156 -18 82 42 102 163 37 222 -16 15 -1367 778 -1524 862 -20 10
-25 8 -50 -30z"/>
<path d="M1384 2699 c-25 -39 -44 -79 -42 -90 3 -21 467 -319 497 -319 13 0
35 25 65 72 25 39 46 75 46 79 0 5 -15 19 -32 32 -60 45 -464 297 -476 297 -7
0 -33 -32 -58 -71z"/>
<path d="M1246 1619 c-14 -11 -26 -25 -26 -30 0 -5 279 -9 708 -9 l707 1 -33
29 -32 30 -649 0 c-641 0 -649 0 -675 -21z"/>
<path d="M1070 1340 l0 -140 850 0 850 0 0 140 0 140 -850 0 -850 0 0 -140z"/>
</g>
</svg>
