<svg width="100" height="100" viewBox="0 0 100 100" fill="none" xmlns="http://www.w3.org/2000/svg">
<path fill-rule="evenodd" clip-rule="evenodd" d="M50 100C77.6142 100 100 77.6142 100 50C100 22.3858 77.6142 0 50 0C22.3858 0 0 22.3858 0 50C0 77.6142 22.3858 100 50 100ZM59.152 35.8529H57.5226C56.5704 35.8529 55.7875 36.6253 55.7875 37.5881V38.0007L30.2571 44.4018H28.4901C27.3051 44.4018 26.3423 45.3646 26.3423 46.5496V52.8132C26.3423 53.9982 27.3051 54.961 28.4901 54.961H30.2571L33.6216 55.8075V58.8017C33.6216 60.6004 34.8913 62.1663 36.6476 62.5366L43.5777 64.0072C43.8422 64.0601 44.1067 64.0919 44.3818 64.0919C45.2494 64.0919 46.0958 63.7956 46.7836 63.2349C47.6829 62.5048 48.2013 61.4256 48.2013 60.2618V59.4577L55.7875 61.3621V61.8065C55.7875 62.7588 56.5598 63.5417 57.5226 63.5417H59.152C60.2629 63.5417 61.1517 62.6424 61.1517 61.542V37.8632C61.1517 36.7522 60.2524 35.8529 59.152 35.8529ZM45.8419 60.2724C45.8419 60.7167 45.6409 61.1294 45.3023 61.415C44.9532 61.6901 44.5088 61.8065 44.075 61.7113L37.1449 60.2406C36.4677 60.0925 35.981 59.4894 35.981 58.8017V56.4L45.8525 58.8758V60.2724H45.8419ZM62.4319 43.2803C62.5483 43.767 62.9821 44.095 63.4582 44.095C63.5429 44.095 63.6275 44.0844 63.7121 44.0315L68.6743 42.8359C69.0446 42.7513 69.3515 42.455 69.4467 42.0847C69.5419 41.7144 69.4361 41.3124 69.1504 41.0479L67.5951 39.5772L71.0338 38.5191C71.5945 38.3499 71.9013 37.7574 71.7321 37.1966C71.5628 36.6358 70.9703 36.329 70.4095 36.4983L65.2357 38.0959C64.876 38.2123 64.6009 38.498 64.5163 38.8683C64.4316 39.228 64.548 39.6195 64.8231 39.8734L66.2832 41.2595L63.2149 42.0001C62.6435 42.1376 62.2944 42.709 62.4319 43.2803ZM70.7269 63.1925C70.6211 63.1925 70.5153 63.182 70.4201 63.1502L65.2463 61.5526C64.8866 61.4468 64.6115 61.1505 64.5268 60.7802C64.4422 60.4099 64.5586 60.029 64.8337 59.7751L66.2937 58.3891L63.2254 57.6484C62.6541 57.5109 62.305 56.9396 62.4425 56.3682C62.58 55.7969 63.1514 55.4477 63.7227 55.5853L68.6849 56.7808C69.0658 56.8761 69.3621 57.1617 69.4573 57.5321C69.5525 57.9024 69.4467 58.3044 69.161 58.5689L67.6057 60.0396L71.0443 61.0976C71.6051 61.2669 71.9119 61.8594 71.7426 62.4202C71.5945 62.8963 71.1819 63.1925 70.7269 63.1925ZM66.9709 52.5064C67.1508 52.6439 67.3835 52.718 67.6057 52.718C67.7433 52.718 67.8808 52.6862 68.0183 52.6545L73.0123 50.5702C73.5519 50.348 73.8058 49.7237 73.5836 49.1842C73.3614 48.6446 72.7372 48.3906 72.1976 48.6128L68.8754 49.9988L69.1187 47.8722C69.161 47.4913 68.9917 47.1104 68.6743 46.8882C68.3569 46.666 67.9443 46.6343 67.5951 46.8036L63.0138 49.0572C62.4954 49.3217 62.2838 49.9459 62.5377 50.475C62.8022 50.9934 63.4265 51.205 63.9555 50.9511L66.791 49.5545L66.5583 51.5436C66.5159 51.9139 66.6746 52.2842 66.9709 52.5064Z" fill="#A52925"/>
</svg>
