<svg width="100" height="100" viewBox="0 0 100 100" fill="none" xmlns="http://www.w3.org/2000/svg">
<path fill-rule="evenodd" clip-rule="evenodd" d="M50 100C77.6142 100 100 77.6142 100 50C100 22.3858 77.6142 0 50 0C22.3858 0 0 22.3858 0 50C0 77.6142 22.3858 100 50 100ZM67.4844 26.2304C67.8725 26.3101 68.2129 26.5415 68.4299 26.8735C68.883 27.5585 68.6967 28.4816 68.0135 28.9366C67.4632 29.3016 66.9128 29.6516 66.3625 29.9942V41.3898C66.3696 41.9708 66.0386 42.503 65.5147 42.7528C65.3108 42.8517 65.0869 42.9027 64.8603 42.9017C64.5291 42.9024 64.2072 42.7923 63.9456 42.5889L55.1852 35.6771H55.0885L52.6046 47.095C52.4806 47.6514 52.0504 48.088 51.4966 48.2197C51.3825 48.2496 51.265 48.2646 51.147 48.2644C50.7034 48.2632 50.2835 48.0639 50.0018 47.7207L43.0039 39.1777L42.2602 39.3118L37.7982 50.0817C37.5821 50.6115 37.082 50.9705 36.5116 51.0053H36.4224C35.8889 51.0074 35.3951 50.7232 35.1284 50.2605L29.4914 40.2651C28.7818 40.2262 28.2533 40.1745 27.9349 40.1434C27.7661 40.1269 27.6563 40.1162 27.6099 40.1162C26.7885 40.0113 26.2075 39.2593 26.3122 38.4366C26.4169 37.6139 27.1677 37.032 27.9892 37.1369C28.1751 37.1593 46.8561 39.3341 66.3625 26.4489C66.6925 26.2293 67.0963 26.1507 67.4844 26.2304ZM72.7675 58.6153C72.8039 58.5992 72.8306 58.5873 72.8473 58.58H72.8548C73.3343 58.3498 73.6549 57.8809 73.6956 57.3498C73.7364 56.8188 73.4911 56.3063 73.0523 56.0054C72.6135 55.7046 72.0478 55.661 71.5682 55.8912C71.3897 55.9955 54.4192 63.9873 31.7447 57.9469C31.2158 57.7638 30.6291 57.8935 30.2263 58.2825C29.8236 58.6715 29.6729 59.2541 29.8364 59.79C29.9999 60.326 30.4499 60.7247 31.001 60.8218C31.59 60.9796 32.1726 61.1184 32.7489 61.2557C32.7985 61.2675 32.848 61.2793 32.8974 61.2911L36.5191 72.1206C36.6996 72.6621 37.1733 73.0527 37.7387 73.1261H37.932C38.4322 73.126 38.8989 72.8741 39.174 72.4557L45.3167 63.0935H45.4357L51.385 73.1261C51.6491 73.5842 52.136 73.8677 52.6641 73.8709H52.7906C53.3598 73.8226 53.8512 73.4521 54.0548 72.9175L57.9888 62.5945L58.7325 62.4976L66.3625 71.3087C66.6397 71.6291 67.04 71.816 67.4632 71.8226C67.5936 71.8204 67.7234 71.8029 67.8499 71.7705C68.4032 71.6267 68.8253 71.1779 68.9356 70.616L71.1146 59.3248C71.9646 58.9727 72.5455 58.7142 72.7675 58.6153Z" fill="#A52925"/>
</svg>
