<svg width="100" height="100" viewBox="0 0 100 100" fill="none" xmlns="http://www.w3.org/2000/svg">
<path fill-rule="evenodd" clip-rule="evenodd" d="M50 100C77.6142 100 100 77.6142 100 50C100 22.3858 77.6142 0 50 0C22.3858 0 0 22.3858 0 50C0 77.6142 22.3858 100 50 100ZM30.311 61.6867C29.7061 34.4662 46.9458 32.349 70.8394 26.3C68.7222 47.4715 64.1854 65.921 35.1502 66.8283C34.5453 68.3406 33.9404 69.8528 33.638 71.6675C32.7306 75.2969 28.1939 73.4822 29.4037 70.7602C34.5453 57.4524 43.3164 47.4715 54.507 39.0029C54.507 39.0029 38.4772 46.5642 30.311 61.6867Z" fill="#A52925"/>
</svg>
