<svg width="100" height="100" viewBox="0 0 100 100" fill="none" xmlns="http://www.w3.org/2000/svg">
<path fill-rule="evenodd" clip-rule="evenodd" d="M50 100C77.6142 100 100 77.6142 100 50C100 22.3858 77.6142 0 50 0C22.3858 0 0 22.3858 0 50C0 77.6142 22.3858 100 50 100ZM26.3 72.1385V73.7L73.6151 73.6875V72.1385L63.2043 64.8181C66.3476 63.2739 68.5233 60.0317 68.5233 56.3071V35.7748C68.5233 30.5617 64.262 26.3 59.0503 26.3H40.8695C35.6578 26.3 31.3972 30.5617 31.3972 35.7748V56.3071C31.3972 60.0144 33.5549 63.2354 36.6724 64.793L26.3 72.1385ZM58.2578 65.8H41.7469L38.872 67.8387H61.128L58.2578 65.8ZM40.4837 53.5677C41.9885 53.5677 43.2043 54.7646 43.2043 56.2435C43.2043 57.7217 41.9885 58.9194 40.4837 58.9194C38.9835 58.9194 37.7677 57.7217 37.7677 56.2435C37.7677 54.7646 38.9835 53.5677 40.4837 53.5677ZM59.4271 53.5677C60.9314 53.5677 62.1473 54.7646 62.1473 56.2435C62.1473 57.7217 60.9314 58.9194 59.4271 58.9194C57.9267 58.9194 56.7108 57.7217 56.7108 56.2435C56.7108 54.7646 57.9267 53.5677 59.4271 53.5677ZM44.8863 29.1882H55.1137C57.2431 29.1882 57.2431 32.4161 55.1137 32.4161H44.8863C42.7569 32.4161 42.7569 29.1882 44.8863 29.1882ZM38.8402 35.4742H61.0749C62.9732 35.4742 64.5258 37.0274 64.5258 38.9257V44.9337C64.5258 46.8328 62.9732 48.386 61.0749 48.386H38.8402C36.9418 48.386 35.3892 46.8328 35.3892 44.9337V38.9257C35.3892 37.0274 36.9418 35.4742 38.8402 35.4742ZM63.6635 69.6226H36.3538L33.6054 71.5763L66.3946 71.5678L63.6635 69.6226Z" fill="#A52925"/>
</svg>
