<svg width="100" height="100" viewBox="0 0 100 100" fill="none" xmlns="http://www.w3.org/2000/svg">
<path fill-rule="evenodd" clip-rule="evenodd" d="M50 0C77.6142 0 100 22.3858 100 50C100 77.6142 77.6142 100 50 100C22.3858 100 0 77.6142 0 50C0 22.3858 22.3858 0 50 0ZM39.3633 51.3039C39.2122 51.2569 39.0489 51.3355 38.9925 51.4857C38.9875 51.4991 38.9834 51.5128 38.9803 51.5268L38.9765 51.5479L37.7451 59.9636L37.7428 59.9839C37.7365 60.0648 37.7632 60.1452 37.8172 60.2065C39.7822 62.4344 43.8474 63.5484 50.013 63.5484C56.179 63.5484 60.2359 62.4343 62.1836 60.2061C62.2371 60.145 62.2634 60.0651 62.2572 59.9847L62.2549 59.9646L61.0354 51.5487L61.0324 51.5312C61.0006 51.3761 60.853 51.2708 60.6944 51.2939C60.6801 51.2959 60.666 51.299 60.6522 51.3031L60.6317 51.31L50.1189 55.2658L50.0982 55.2728C50.0426 55.2892 49.9834 55.2892 49.9278 55.2728L49.9072 55.2659L39.38 51.3096L39.3633 51.3039ZM49.93 36.7864C49.8748 36.7701 49.816 36.7701 49.7608 36.7864L49.7403 36.7932L26.9689 45.3235L26.9526 45.3302C26.8085 45.3939 26.7373 45.56 26.7933 45.7096C26.8213 45.7846 26.878 45.845 26.9504 45.8778L26.9688 45.8854L38.9825 50.3934L49.7405 54.4148L49.761 54.4216C49.8161 54.4378 49.8747 54.4378 49.9298 54.4216L49.9503 54.4148L60.7084 50.3934L66.3184 48.2729L66.7136 48.4264V55.8334L66.6883 55.8467C66.404 56.0013 66.2029 56.3103 66.1913 56.658L66.1908 56.6898V56.9191L66.1914 56.9524C66.201 57.1962 66.3147 57.4176 66.4631 57.5866L66.4835 57.6094L65.9473 60.615L65.9447 60.6324C65.926 60.7891 66.0325 60.935 66.1897 60.9631C66.2013 60.9651 66.213 60.9665 66.2247 60.9672L66.2424 60.9677H68.1261L68.1438 60.9672C68.3011 60.9581 68.4259 60.8275 68.4259 60.6677C68.4259 60.6557 68.4252 60.6437 68.4237 60.6318L68.421 60.6139L67.8738 57.6094L67.8957 57.5866C68.0533 57.4176 68.1463 57.1957 68.1541 56.9518L68.1546 56.9185V56.6892L68.1541 56.6564C68.1432 56.2983 67.9531 56.0003 67.6596 55.8239L67.6317 55.8078V47.788L72.7085 45.8857L72.7248 45.8791C72.869 45.8153 72.9401 45.6492 72.8841 45.4996C72.8561 45.4246 72.7993 45.3642 72.7269 45.3314L72.7085 45.3238L49.9505 36.7933L49.93 36.7864Z" fill="#A52925"/>
</svg>
