<?xml version="1.0" standalone="no"?>
<!DOCTYPE svg PUBLIC "-//W3C//DTD SVG 20010904//EN"
 "http://www.w3.org/TR/2001/REC-SVG-20010904/DTD/svg10.dtd">
<svg version="1.0" xmlns="http://www.w3.org/2000/svg"
 width="500.000000pt" height="500.000000pt" viewBox="0 0 500.000000 500.000000"
 preserveAspectRatio="xMidYMid meet">
<metadata>
Created by potrace 1.16, written by Peter Selinger 2001-2019
</metadata>
<g transform="translate(0.000000,500.000000) scale(0.100000,-0.100000)"
fill="#000000" stroke="none">
<path d="M2325 4994 c-258 -26 -503 -79 -690 -149 -597 -221 -1105 -681 -1380
-1250 -115 -237 -194 -497 -232 -760 -23 -165 -23 -505 0 -670 64 -444 240
-859 515 -1214 83 -108 291 -315 400 -401 282 -221 623 -389 957 -474 199 -51
360 -70 605 -70 312 0 524 34 810 130 123 41 389 168 510 244 228 142 492 377
642 571 276 356 450 767 515 1214 24 165 24 505 0 670 -107 732 -494 1344
-1114 1758 -126 84 -349 197 -498 252 -137 51 -340 102 -498 126 -126 19 -448
33 -542 23z m273 -953 c20 -11 50 -33 66 -50 l30 -31 133 0 c145 0 186 -10
235 -57 14 -14 32 -38 38 -54 l12 -28 271 -3 c265 -3 273 -4 312 -26 48 -29
83 -70 101 -120 17 -48 20 -2534 3 -2579 -21 -56 -61 -102 -112 -128 l-51 -25
-1113 0 c-1096 0 -1113 0 -1167 20 -62 24 -131 85 -152 135 -12 29 -14 230
-14 1293 l0 1258 29 47 c17 25 48 58 69 72 75 49 114 55 388 55 l253 0 15 28
c19 37 75 88 109 101 16 6 88 11 161 11 l132 0 30 31 c61 65 152 86 222 50z"/>
<path d="M2439 3910 l-48 -50 -149 0 c-138 0 -151 -2 -177 -22 -41 -32 -55
-76 -55 -178 l0 -90 510 0 510 0 0 95 c0 180 -18 195 -231 195 l-152 0 -45 50
c-38 42 -51 50 -80 50 -28 0 -43 -9 -83 -50z"/>
<path d="M1369 3697 c-24 -13 -54 -39 -67 -57 l-22 -33 2 -1233 c3 -1226 3
-1233 24 -1261 11 -15 40 -38 64 -51 l44 -22 1104 0 c1218 0 1144 -4 1176 64
15 32 16 142 14 1291 l-3 1257 -37 34 -38 34 -250 0 -250 0 0 -25 0 -25 229 0
c195 0 232 -2 245 -16 14 -14 16 -141 16 -1248 0 -1048 -2 -1235 -14 -1252
-14 -19 -38 -19 -1097 -22 -959 -2 -1085 -1 -1106 13 l-23 15 0 1243 c0 953 3
1246 12 1255 9 9 82 12 265 12 l253 0 0 25 0 25 -248 0 c-241 0 -250 -1 -293
-23z"/>
<path d="M1480 2400 l0 -1170 1020 0 1020 0 0 1170 0 1170 -195 0 -195 0 0
-35 c0 -68 21 -66 -619 -63 -554 3 -573 4 -587 22 -8 11 -14 32 -14 48 l0 28
-215 0 -215 0 0 -1170z m638 668 c28 -28 11 -55 -126 -191 -76 -75 -142 -137
-147 -137 -14 0 -195 183 -195 199 0 20 30 51 49 51 8 0 45 -29 81 -65 l65
-65 110 110 c108 109 136 125 163 98z m1240 -140 c7 -7 12 -24 12 -38 0 -14
-5 -31 -12 -38 -9 -9 -132 -12 -492 -12 -432 0 -481 2 -498 17 -22 20 -23 46
-2 67 14 14 73 16 498 16 361 0 485 -3 494 -12z m-1240 -250 c28 -28 11 -55
-126 -191 -76 -75 -142 -137 -147 -137 -14 0 -195 183 -195 199 0 20 30 51 49
51 8 0 45 -29 81 -65 l65 -65 110 110 c108 109 136 125 163 98z m560 -140 c19
-19 15 -66 -7 -78 -11 -5 -79 -10 -152 -10 -109 0 -136 3 -151 17 -22 20 -23
46 -2 67 13 13 42 16 158 16 97 0 146 -4 154 -12z m680 0 c7 -7 12 -24 12 -38
0 -14 -5 -31 -12 -38 -16 -16 -470 -17 -499 -2 -22 12 -26 59 -7 78 17 17 489
17 506 0z m-1240 -250 c28 -28 11 -55 -126 -191 -76 -75 -142 -137 -147 -137
-14 0 -195 183 -195 199 0 20 30 51 49 51 8 0 45 -29 81 -65 l65 -65 110 110
c108 109 136 125 163 98z m1240 -140 c7 -7 12 -24 12 -38 0 -14 -5 -31 -12
-38 -9 -9 -132 -12 -492 -12 -432 0 -481 2 -498 17 -22 20 -23 46 -2 67 14 14
73 16 498 16 361 0 485 -3 494 -12z m-1240 -250 c28 -28 11 -55 -126 -191 -76
-75 -142 -137 -147 -137 -14 0 -195 183 -195 199 0 20 30 51 49 51 8 0 45 -29
81 -65 l65 -65 110 110 c108 109 136 125 163 98z m900 -140 c7 -7 12 -24 12
-38 0 -50 -3 -50 -334 -50 -274 0 -312 2 -328 17 -22 20 -23 46 -2 67 13 14
57 16 328 16 229 0 315 -3 324 -12z m340 0 c7 -7 12 -24 12 -38 0 -40 -18 -50
-91 -50 -74 0 -99 14 -99 54 0 37 19 46 95 46 42 0 76 -5 83 -12z"/>
</g>
</svg>
